<svg xmlns="http://www.w3.org/2000/svg" width="788" height="300" viewBox="0 0 788 300">
  <g id="Group_184" data-name="Group 184" transform="translate(-326 -2518)">
    <rect id="Rectangle_581" data-name="Rectangle 581" width="788" height="300" transform="translate(326 2518)" fill="#fff"/>
    <g id="Layer_2" data-name="Layer 2" transform="translate(326 2518)">
      <g id="Layer_1" data-name="Layer 1" transform="translate(0 0)">
        <rect id="Rectangle_437" data-name="Rectangle 437" width="1.611" height="40.157" transform="translate(0 1.139) rotate(-45)" fill="#231f20"/>
        <rect id="Rectangle_438" data-name="Rectangle 438" width="1.611" height="37.398" transform="matrix(0.651, -0.759, 0.759, 0.651, 0.046, 8.548)" fill="#231f20"/>
        <rect id="Rectangle_439" data-name="Rectangle 439" width="1.611" height="34.891" transform="translate(0.097 15.959) rotate(-54.46)" fill="#231f20"/>
        <rect id="Rectangle_440" data-name="Rectangle 440" width="1.611" height="32.7" transform="matrix(0.496, -0.868, 0.868, 0.496, 0.172, 23.368)" fill="#231f20"/>
        <rect id="Rectangle_441" data-name="Rectangle 441" width="1.611" height="30.889" transform="translate(0.251 30.77) rotate(-66.8)" fill="#231f20"/>
        <rect id="Rectangle_442" data-name="Rectangle 442" width="1.611" height="29.529" transform="translate(0.347 38.174) rotate(-74.05)" fill="#231f20"/>
        <rect id="Rectangle_443" data-name="Rectangle 443" width="1.611" height="28.679" transform="matrix(0.141, -0.99, 0.99, 0.141, 0.456, 45.563)" fill="#231f20"/>
        <rect id="Rectangle_444" data-name="Rectangle 444" width="28.395" height="1.611" transform="translate(0.568 51.319)" fill="#231f20"/>
        <rect id="Rectangle_445" data-name="Rectangle 445" width="28.679" height="1.611" transform="matrix(0.99, -0.141, 0.141, 0.99, 0.456, 58.7)" fill="#231f20"/>
        <rect id="Rectangle_446" data-name="Rectangle 446" width="29.529" height="1.611" transform="matrix(0.961, -0.275, 0.275, 0.961, 0.35, 66.085)" fill="#231f20"/>
        <rect id="Rectangle_447" data-name="Rectangle 447" width="30.889" height="1.611" transform="matrix(0.919, -0.394, 0.394, 0.919, 0.252, 73.481)" fill="#231f20"/>
        <rect id="Rectangle_448" data-name="Rectangle 448" width="32.7" height="1.611" transform="matrix(0.868, -0.496, 0.496, 0.868, 0.173, 80.893)" fill="#231f20"/>
        <rect id="Rectangle_449" data-name="Rectangle 449" width="34.891" height="1.611" transform="matrix(0.814, -0.581, 0.581, 0.814, 0.1, 88.293)" fill="#231f20"/>
        <rect id="Rectangle_450" data-name="Rectangle 450" width="37.398" height="1.611" transform="matrix(0.759, -0.651, 0.651, 0.759, 0.049, 95.702)" fill="#231f20"/>
        <rect id="Rectangle_451" data-name="Rectangle 451" width="40.157" height="1.611" transform="translate(0.006 103.116) rotate(-45)" fill="#231f20"/>
        <rect id="Rectangle_452" data-name="Rectangle 452" width="40.157" height="1.611" transform="translate(74.721 28.395) rotate(-45)" fill="#231f20"/>
        <rect id="Rectangle_453" data-name="Rectangle 453" width="37.398" height="1.611" transform="matrix(0.651, -0.759, 0.759, 0.651, 71.373, 28.443)" fill="#231f20"/>
        <rect id="Rectangle_454" data-name="Rectangle 454" width="34.891" height="1.611" transform="matrix(0.581, -0.814, 0.814, 0.581, 68.019, 28.496)" fill="#231f20"/>
        <rect id="Rectangle_455" data-name="Rectangle 455" width="32.7" height="1.611" transform="matrix(0.496, -0.868, 0.868, 0.496, 64.66, 28.563)" fill="#231f20"/>
        <rect id="Rectangle_456" data-name="Rectangle 456" width="30.889" height="1.611" transform="matrix(0.394, -0.919, 0.919, 0.394, 61.317, 28.651)" fill="#231f20"/>
        <rect id="Rectangle_457" data-name="Rectangle 457" width="29.529" height="1.611" transform="matrix(0.275, -0.961, 0.961, 0.275, 57.971, 28.743)" fill="#231f20"/>
        <rect id="Rectangle_458" data-name="Rectangle 458" width="28.679" height="1.611" transform="matrix(0.141, -0.99, 0.99, 0.141, 54.635, 28.85)" fill="#231f20"/>
        <rect id="Rectangle_459" data-name="Rectangle 459" width="1.611" height="28.395" transform="translate(51.319 0.567)" fill="#231f20"/>
        <rect id="Rectangle_460" data-name="Rectangle 460" width="1.611" height="28.679" transform="matrix(0.99, -0.141, 0.141, 0.99, 43.963, 0.685)" fill="#231f20"/>
        <rect id="Rectangle_461" data-name="Rectangle 461" width="1.611" height="29.529" transform="translate(36.62 0.785) rotate(-15.95)" fill="#231f20"/>
        <rect id="Rectangle_462" data-name="Rectangle 462" width="1.611" height="30.889" transform="translate(29.295 0.89) rotate(-23.2)" fill="#231f20"/>
        <rect id="Rectangle_463" data-name="Rectangle 463" width="1.611" height="32.7" transform="matrix(0.868, -0.496, 0.496, 0.868, 21.966, 0.968)" fill="#231f20"/>
        <rect id="Rectangle_464" data-name="Rectangle 464" width="1.611" height="34.891" transform="translate(14.649 1.033) rotate(-35.54)" fill="#231f20"/>
        <rect id="Rectangle_465" data-name="Rectangle 465" width="1.611" height="37.398" transform="matrix(0.759, -0.651, 0.651, 0.759, 7.323, 1.099)" fill="#231f20"/>
        <rect id="Rectangle_466" data-name="Rectangle 466" width="1.611" height="40.157" transform="translate(0 1.139) rotate(-45)" fill="#231f20"/>
        <rect id="Rectangle_467" data-name="Rectangle 467" width="1.611" height="40.157" transform="translate(74.72 75.854) rotate(-45)" fill="#231f20"/>
        <rect id="Rectangle_468" data-name="Rectangle 468" width="1.611" height="37.398" transform="matrix(0.651, -0.759, 0.759, 0.651, 74.763, 72.597)" fill="#231f20"/>
        <rect id="Rectangle_469" data-name="Rectangle 469" width="1.611" height="34.891" transform="translate(74.819 69.333) rotate(-54.46)" fill="#231f20"/>
        <rect id="Rectangle_470" data-name="Rectangle 470" width="1.611" height="32.7" transform="matrix(0.496, -0.868, 0.868, 0.496, 74.886, 66.055)" fill="#231f20"/>
        <rect id="Rectangle_471" data-name="Rectangle 471" width="1.611" height="30.889" transform="translate(74.974 62.8) rotate(-66.8)" fill="#231f20"/>
        <rect id="Rectangle_472" data-name="Rectangle 472" width="1.611" height="29.529" transform="translate(75.076 59.53) rotate(-74.05)" fill="#231f20"/>
        <rect id="Rectangle_473" data-name="Rectangle 473" width="1.611" height="28.679" transform="matrix(0.141, -0.99, 0.99, 0.141, 75.176, 56.233)" fill="#231f20"/>
        <rect id="Rectangle_474" data-name="Rectangle 474" width="28.395" height="1.611" transform="translate(75.293 51.319)" fill="#231f20"/>
        <rect id="Rectangle_475" data-name="Rectangle 475" width="28.679" height="1.611" transform="matrix(0.99, -0.141, 0.141, 0.99, 75.176, 48.021)" fill="#231f20"/>
        <rect id="Rectangle_476" data-name="Rectangle 476" width="29.529" height="1.611" transform="matrix(0.961, -0.275, 0.275, 0.961, 75.069, 44.732)" fill="#231f20"/>
        <rect id="Rectangle_477" data-name="Rectangle 477" width="30.889" height="1.611" transform="matrix(0.919, -0.394, 0.394, 0.919, 74.972, 41.455)" fill="#231f20"/>
        <rect id="Rectangle_478" data-name="Rectangle 478" width="32.7" height="1.611" transform="matrix(0.868, -0.496, 0.496, 0.868, 74.889, 38.197)" fill="#231f20"/>
        <rect id="Rectangle_479" data-name="Rectangle 479" width="34.891" height="1.611" transform="matrix(0.814, -0.581, 0.581, 0.814, 74.819, 34.926)" fill="#231f20"/>
        <rect id="Rectangle_480" data-name="Rectangle 480" width="37.398" height="1.611" transform="matrix(0.759, -0.651, 0.651, 0.759, 74.76, 31.651)" fill="#231f20"/>
        <rect id="Rectangle_481" data-name="Rectangle 481" width="40.157" height="1.611" transform="translate(74.721 28.395) rotate(-45)" fill="#231f20"/>
        <rect id="Rectangle_482" data-name="Rectangle 482" width="40.157" height="1.611" transform="translate(0.006 103.116) rotate(-45)" fill="#231f20"/>
        <rect id="Rectangle_483" data-name="Rectangle 483" width="37.398" height="1.611" transform="matrix(0.651, -0.759, 0.759, 0.651, 7.318, 103.16)" fill="#231f20"/>
        <rect id="Rectangle_484" data-name="Rectangle 484" width="34.891" height="1.611" transform="matrix(0.581, -0.814, 0.814, 0.581, 14.64, 103.219)" fill="#231f20"/>
        <rect id="Rectangle_485" data-name="Rectangle 485" width="32.7" height="1.611" transform="matrix(0.496, -0.868, 0.868, 0.496, 21.972, 103.286)" fill="#231f20"/>
        <rect id="Rectangle_486" data-name="Rectangle 486" width="30.889" height="1.611" transform="matrix(0.394, -0.919, 0.919, 0.394, 29.294, 103.367)" fill="#231f20"/>
        <rect id="Rectangle_487" data-name="Rectangle 487" width="29.529" height="1.611" transform="matrix(0.275, -0.961, 0.961, 0.275, 36.614, 103.464)" fill="#231f20"/>
        <rect id="Rectangle_488" data-name="Rectangle 488" width="28.679" height="1.611" transform="matrix(0.141, -0.99, 0.99, 0.141, 43.971, 103.57)" fill="#231f20"/>
        <rect id="Rectangle_489" data-name="Rectangle 489" width="1.611" height="28.395" transform="translate(51.319 75.293)" fill="#231f20"/>
        <rect id="Rectangle_490" data-name="Rectangle 490" width="1.611" height="28.679" transform="matrix(0.99, -0.141, 0.141, 0.99, 54.642, 75.405)" fill="#231f20"/>
        <rect id="Rectangle_491" data-name="Rectangle 491" width="1.611" height="29.529" transform="translate(57.974 75.5) rotate(-15.95)" fill="#231f20"/>
        <rect id="Rectangle_492" data-name="Rectangle 492" width="1.611" height="30.889" transform="translate(61.316 75.61) rotate(-23.2)" fill="#231f20"/>
        <rect id="Rectangle_493" data-name="Rectangle 493" width="1.611" height="32.7" transform="matrix(0.868, -0.496, 0.496, 0.868, 64.66, 75.698)" fill="#231f20"/>
        <rect id="Rectangle_494" data-name="Rectangle 494" width="1.611" height="34.891" transform="translate(68.014 75.75) rotate(-35.54)" fill="#231f20"/>
        <rect id="Rectangle_495" data-name="Rectangle 495" width="1.611" height="37.398" transform="matrix(0.759, -0.651, 0.651, 0.759, 71.368, 75.815)" fill="#231f20"/>
        <rect id="Rectangle_496" data-name="Rectangle 496" width="1.611" height="40.157" transform="translate(74.72 75.854) rotate(-45)" fill="#231f20"/>
        <path id="Path_227" data-name="Path 227" d="M386.016,102.733l-5.381,5.381H367.178l-6.238-6.238V84.688l6.238-6.238h13.134l5.381,5.388-2.442,2.507-4.466-4.466h-9.957l-4.1,4.157v14.558l4.1,4.1h10.279l4.46-4.466Z" transform="translate(-128.327 -27.892)" fill="#231f20"/>
        <path id="Path_228" data-name="Path 228" d="M437.492,84.688v17.188l-6.245,6.238H417.558l-6.238-6.238V84.688l6.238-6.238h13.7Zm-3.822,15.905V86.035l-4.1-4.157H419.2l-4.1,4.157v14.558l4.1,4.1h10.4Z" transform="translate(-146.239 -27.892)" fill="#231f20"/>
        <path id="Path_229" data-name="Path 229" d="M490.6,83.7v24.4h-3.422l-.187-6.18-6.174,6.18H469.624l-5.014-5.014V96.362l4.337-4.344,17.858-1.16V85.11l-3.3-3.222H472.073l-4.1,4-2.507-2.507,4.949-4.956h14.926Zm-3.8,14.674V94.222l-16.079,1.1-2.327,2.32v4.163l2.939,2.932h9.113Z" transform="translate(-165.185 -27.881)" fill="#231f20"/>
        <path id="Path_230" data-name="Path 230" d="M545.456,102.733l-5.381,5.381H526.618l-6.238-6.238V84.688l6.238-6.238h13.147l5.388,5.388-2.462,2.507-4.466-4.466h-9.957l-4.1,4.157v14.558l4.1,4.1h10.273l4.466-4.466Z" transform="translate(-185.014 -27.892)" fill="#231f20"/>
        <path id="Path_231" data-name="Path 231" d="M597.526,75.787v24.4h-3.8V77.192l-3.222-3.222h-7.734l-6.535,6.522v19.695H572.45V56.15h3.789V76.773l6.18-6.238h9.847Z" transform="translate(-203.526 -19.963)" fill="#231f20"/>
        <path id="Path_232" data-name="Path 232" d="M223.839,103.139l-4.969,4.975H204.775l-5.845-5.845V84.3l5.845-5.845H218.56l4.975,4.975-4.447,4.447L215.506,84.3h-7.63l-2.4,2.4V99.872l2.4,2.4h7.94l3.577-3.577Z" transform="translate(-70.726 -27.892)" fill="#231f20"/>
        <path id="Path_233" data-name="Path 233" d="M270.165,108.125,264.1,97.131h-6.412v10.995H251.14V78.48h19.978l4.891,4.846V92.2L271.254,97l6.219,11.123ZM257.688,91.331H268l1.482-1.527V85.75L268,84.306H257.688Z" transform="translate(-89.289 -27.902)" fill="#231f20"/>
        <path id="Path_234" data-name="Path 234" d="M312.464,84.306v6.019h15.093v5.845H312.464v6.11h17.272v5.845H305.89V78.48h23.845v5.845Z" transform="translate(-108.755 -27.902)" fill="#231f20"/>
        <path id="Path_235" data-name="Path 235" d="M215.769,43.3H210.13v14.32H206.2V43.3H200.56V39.79h15.209Z" transform="translate(-71.306 -14.147)" fill="#231f20"/>
        <path id="Path_236" data-name="Path 236" d="M251.816,39.79V57.622h-3.938V50.333h-7.34v7.289H236.6V39.79h3.938v7.025h7.34V39.79Z" transform="translate(-84.119 -14.147)" fill="#231f20"/>
        <path id="Path_237" data-name="Path 237" d="M278.458,43.3v3.615h9.074v3.519h-9.074V54.1H288.84v3.519H274.52V39.79h14.32V43.3Z" transform="translate(-97.601 -14.147)" fill="#231f20"/>
      </g>
    </g>
  </g>
</svg>
