<svg xmlns="http://www.w3.org/2000/svg" width="788" height="300.319" viewBox="0 0 788 300.319">
  <g id="Group_185" data-name="Group 185" transform="translate(-326 -2946.681)">
    <rect id="Rectangle_582" data-name="Rectangle 582" width="788" height="300" transform="translate(326 2947)" fill="#fff"/>
    <g id="Group_183" data-name="Group 183" transform="translate(326 2947)">
      <g id="Group_181" data-name="Group 181" transform="translate(0 0)">
        <g id="Group_132" data-name="Group 132" transform="translate(0)">
          <g id="Group_117" data-name="Group 117">
            <rect id="Rectangle_521" data-name="Rectangle 521" width="1.592" height="39.672" transform="translate(0 1.125) rotate(-45)" fill="#1a1818"/>
          </g>
          <g id="Group_118" data-name="Group 118" transform="translate(0.045 7.235)">
            <rect id="Rectangle_522" data-name="Rectangle 522" width="1.592" height="36.947" transform="matrix(0.651, -0.759, 0.759, 0.651, 0, 1.209)" fill="#1a1818"/>
          </g>
          <g id="Group_119" data-name="Group 119" transform="translate(0.1 14.469)">
            <rect id="Rectangle_523" data-name="Rectangle 523" width="1.592" height="34.473" transform="translate(0 1.296) rotate(-54.462)" fill="#1a1818"/>
          </g>
          <g id="Group_120" data-name="Group 120" transform="translate(0.168 21.702)">
            <rect id="Rectangle_524" data-name="Rectangle 524" width="1.591" height="32.309" transform="translate(0 1.382) rotate(-60.255)" fill="#1a1818"/>
          </g>
          <g id="Group_121" data-name="Group 121" transform="translate(0.249 28.938)">
            <rect id="Rectangle_525" data-name="Rectangle 525" width="1.592" height="30.52" transform="translate(0 1.464) rotate(-66.801)" fill="#1a1818"/>
          </g>
          <g id="Group_122" data-name="Group 122" transform="translate(0.344 36.181)">
            <rect id="Rectangle_526" data-name="Rectangle 526" width="1.592" height="29.175" transform="translate(0 1.531) rotate(-74.055)" fill="#1a1818"/>
          </g>
          <g id="Group_123" data-name="Group 123" transform="translate(0.45 43.435)">
            <rect id="Rectangle_527" data-name="Rectangle 527" width="1.592" height="28.337" transform="translate(0 1.576) rotate(-81.87)" fill="#1a1818"/>
          </g>
          <g id="Group_124" data-name="Group 124" transform="translate(0.563 50.704)">
            <rect id="Rectangle_528" data-name="Rectangle 528" width="28.052" height="1.592" fill="#1a1818"/>
          </g>
          <g id="Group_125" data-name="Group 125" transform="translate(0.45 53.982)">
            <rect id="Rectangle_529" data-name="Rectangle 529" width="28.337" height="1.592" transform="translate(0 4.007) rotate(-8.13)" fill="#1a1818"/>
          </g>
          <g id="Group_126" data-name="Group 126" transform="translate(0.345 57.27)">
            <rect id="Rectangle_530" data-name="Rectangle 530" width="29.175" height="1.592" transform="translate(0 8.021) rotate(-15.958)" fill="#1a1818"/>
          </g>
          <g id="Group_127" data-name="Group 127" transform="translate(0.248 60.581)">
            <rect id="Rectangle_531" data-name="Rectangle 531" width="30.52" height="1.592" transform="translate(0 12.014) rotate(-23.181)" fill="#1a1818"/>
          </g>
          <g id="Group_128" data-name="Group 128" transform="translate(0.169 63.885)">
            <rect id="Rectangle_532" data-name="Rectangle 532" width="32.309" height="1.591" transform="translate(0 16.033) rotate(-29.75)" fill="#1a1818"/>
          </g>
          <g id="Group_129" data-name="Group 129" transform="translate(0.098 67.201)">
            <rect id="Rectangle_533" data-name="Rectangle 533" width="34.473" height="1.592" transform="matrix(0.814, -0.581, 0.581, 0.814, 0, 20.032)" fill="#1a1818"/>
          </g>
          <g id="Group_130" data-name="Group 130" transform="translate(0.044 70.513)">
            <rect id="Rectangle_534" data-name="Rectangle 534" width="36.946" height="1.592" transform="matrix(0.759, -0.651, 0.651, 0.759, 0, 24.042)" fill="#1a1818"/>
          </g>
          <g id="Group_131" data-name="Group 131" transform="translate(0 73.822)">
            <rect id="Rectangle_535" data-name="Rectangle 535" width="39.672" height="1.592" transform="translate(0 28.052) rotate(-45)" fill="#1a1818"/>
          </g>
        </g>
        <g id="Group_148" data-name="Group 148" transform="translate(0)">
          <g id="Group_133" data-name="Group 133" transform="translate(73.822 0)">
            <rect id="Rectangle_536" data-name="Rectangle 536" width="39.672" height="1.592" transform="translate(0 28.052) rotate(-45)" fill="#1a1818"/>
          </g>
          <g id="Group_134" data-name="Group 134" transform="translate(70.512 0.044)">
            <rect id="Rectangle_537" data-name="Rectangle 537" width="36.947" height="1.592" transform="matrix(0.651, -0.759, 0.759, 0.651, 0, 28.054)" fill="#1a1818"/>
          </g>
          <g id="Group_135" data-name="Group 135" transform="translate(67.201 0.098)">
            <rect id="Rectangle_538" data-name="Rectangle 538" width="34.473" height="1.592" transform="matrix(0.581, -0.814, 0.814, 0.581, 0, 28.056)" fill="#1a1818"/>
          </g>
          <g id="Group_136" data-name="Group 136" transform="translate(63.885 0.169)">
            <rect id="Rectangle_539" data-name="Rectangle 539" width="32.309" height="1.591" transform="translate(0 28.051) rotate(-60.25)" fill="#1a1818"/>
          </g>
          <g id="Group_137" data-name="Group 137" transform="translate(60.581 0.247)">
            <rect id="Rectangle_540" data-name="Rectangle 540" width="30.52" height="1.592" transform="translate(0 28.056) rotate(-66.819)" fill="#1a1818"/>
          </g>
          <g id="Group_138" data-name="Group 138" transform="translate(57.27 0.345)">
            <rect id="Rectangle_541" data-name="Rectangle 541" width="29.175" height="1.592" transform="translate(0 28.05) rotate(-74.042)" fill="#1a1818"/>
          </g>
          <g id="Group_139" data-name="Group 139" transform="translate(53.982 0.45)">
            <rect id="Rectangle_542" data-name="Rectangle 542" width="28.337" height="1.592" transform="translate(0 28.052) rotate(-81.87)" fill="#1a1818"/>
          </g>
          <g id="Group_140" data-name="Group 140" transform="translate(50.704 0.563)">
            <rect id="Rectangle_543" data-name="Rectangle 543" width="1.592" height="28.052" fill="#1a1818"/>
          </g>
          <g id="Group_141" data-name="Group 141" transform="translate(43.435 0.45)">
            <rect id="Rectangle_544" data-name="Rectangle 544" width="1.592" height="28.337" transform="translate(0 0.225) rotate(-8.13)" fill="#1a1818"/>
          </g>
          <g id="Group_142" data-name="Group 142" transform="translate(36.181 0.344)">
            <rect id="Rectangle_545" data-name="Rectangle 545" width="1.592" height="29.175" transform="translate(0 0.437) rotate(-15.945)" fill="#1a1818"/>
          </g>
          <g id="Group_143" data-name="Group 143" transform="translate(28.938 0.249)">
            <rect id="Rectangle_546" data-name="Rectangle 546" width="1.592" height="30.52" transform="translate(0 0.627) rotate(-23.199)" fill="#1a1818"/>
          </g>
          <g id="Group_144" data-name="Group 144" transform="translate(21.702 0.168)">
            <rect id="Rectangle_547" data-name="Rectangle 547" width="1.591" height="32.309" transform="translate(0 0.79) rotate(-29.745)" fill="#1a1818"/>
          </g>
          <g id="Group_145" data-name="Group 145" transform="translate(14.469 0.1)">
            <rect id="Rectangle_548" data-name="Rectangle 548" width="1.592" height="34.473" transform="translate(0 0.925) rotate(-35.538)" fill="#1a1818"/>
          </g>
          <g id="Group_146" data-name="Group 146" transform="translate(7.235 0.045)">
            <rect id="Rectangle_549" data-name="Rectangle 549" width="1.592" height="36.947" transform="matrix(0.759, -0.651, 0.651, 0.759, 0, 1.036)" fill="#1a1818"/>
          </g>
          <g id="Group_147" data-name="Group 147">
            <rect id="Rectangle_550" data-name="Rectangle 550" width="1.592" height="39.672" transform="translate(0 1.125) rotate(-45)" fill="#1a1818"/>
          </g>
        </g>
        <g id="Group_164" data-name="Group 164" transform="translate(73.822 0)">
          <g id="Group_149" data-name="Group 149" transform="translate(0 73.822)">
            <rect id="Rectangle_551" data-name="Rectangle 551" width="1.592" height="39.672" transform="translate(0 1.125) rotate(-45)" fill="#1a1818"/>
          </g>
          <g id="Group_150" data-name="Group 150" transform="translate(0.045 70.512)">
            <rect id="Rectangle_552" data-name="Rectangle 552" width="1.592" height="36.946" transform="matrix(0.651, -0.759, 0.759, 0.651, 0, 1.209)" fill="#1a1818"/>
          </g>
          <g id="Group_151" data-name="Group 151" transform="translate(0.1 67.199)">
            <rect id="Rectangle_553" data-name="Rectangle 553" width="1.592" height="34.473" transform="translate(0 1.296) rotate(-54.462)" fill="#1a1818"/>
          </g>
          <g id="Group_152" data-name="Group 152" transform="translate(0.168 63.887)">
            <rect id="Rectangle_554" data-name="Rectangle 554" width="1.591" height="32.309" transform="translate(0 1.382) rotate(-60.255)" fill="#1a1818"/>
          </g>
          <g id="Group_153" data-name="Group 153" transform="translate(0.249 60.576)">
            <rect id="Rectangle_555" data-name="Rectangle 555" width="1.592" height="30.52" transform="translate(0 1.464) rotate(-66.801)" fill="#1a1818"/>
          </g>
          <g id="Group_154" data-name="Group 154" transform="translate(0.344 57.273)">
            <rect id="Rectangle_556" data-name="Rectangle 556" width="1.592" height="29.175" transform="translate(0 1.531) rotate(-74.055)" fill="#1a1818"/>
          </g>
          <g id="Group_155" data-name="Group 155" transform="translate(0.45 53.981)">
            <rect id="Rectangle_557" data-name="Rectangle 557" width="1.592" height="28.337" transform="translate(0 1.576) rotate(-81.87)" fill="#1a1818"/>
          </g>
          <g id="Group_156" data-name="Group 156" transform="translate(0.563 50.704)">
            <rect id="Rectangle_558" data-name="Rectangle 558" width="28.052" height="1.592" fill="#1a1818"/>
          </g>
          <g id="Group_157" data-name="Group 157" transform="translate(0.45 43.435)">
            <rect id="Rectangle_559" data-name="Rectangle 559" width="28.337" height="1.592" transform="translate(0 4.007) rotate(-8.13)" fill="#1a1818"/>
          </g>
          <g id="Group_158" data-name="Group 158" transform="translate(0.345 36.178)">
            <rect id="Rectangle_560" data-name="Rectangle 560" width="29.175" height="1.592" transform="translate(0 8.021) rotate(-15.958)" fill="#1a1818"/>
          </g>
          <g id="Group_159" data-name="Group 159" transform="translate(0.247 28.943)">
            <rect id="Rectangle_561" data-name="Rectangle 561" width="30.52" height="1.592" transform="translate(0 12.014) rotate(-23.181)" fill="#1a1818"/>
          </g>
          <g id="Group_160" data-name="Group 160" transform="translate(0.169 21.701)">
            <rect id="Rectangle_562" data-name="Rectangle 562" width="32.309" height="1.591" transform="translate(0 16.033) rotate(-29.75)" fill="#1a1818"/>
          </g>
          <g id="Group_161" data-name="Group 161" transform="translate(0.098 14.471)">
            <rect id="Rectangle_563" data-name="Rectangle 563" width="34.473" height="1.592" transform="matrix(0.814, -0.581, 0.581, 0.814, 0, 20.032)" fill="#1a1818"/>
          </g>
          <g id="Group_162" data-name="Group 162" transform="translate(0.044 7.236)">
            <rect id="Rectangle_564" data-name="Rectangle 564" width="36.947" height="1.592" transform="matrix(0.759, -0.651, 0.651, 0.759, 0, 24.042)" fill="#1a1818"/>
          </g>
          <g id="Group_163" data-name="Group 163" transform="translate(0)">
            <rect id="Rectangle_565" data-name="Rectangle 565" width="39.672" height="1.592" transform="translate(0 28.052) rotate(-45)" fill="#1a1818"/>
          </g>
        </g>
        <g id="Group_180" data-name="Group 180" transform="translate(0 73.822)">
          <g id="Group_165" data-name="Group 165" transform="translate(0 0)">
            <rect id="Rectangle_566" data-name="Rectangle 566" width="39.672" height="1.592" transform="translate(0 28.052) rotate(-45)" fill="#1a1818"/>
          </g>
          <g id="Group_166" data-name="Group 166" transform="translate(7.236 0.044)">
            <rect id="Rectangle_567" data-name="Rectangle 567" width="36.947" height="1.592" transform="matrix(0.651, -0.759, 0.759, 0.651, 0, 28.054)" fill="#1a1818"/>
          </g>
          <g id="Group_167" data-name="Group 167" transform="translate(14.471 0.098)">
            <rect id="Rectangle_568" data-name="Rectangle 568" width="34.473" height="1.592" transform="matrix(0.581, -0.814, 0.814, 0.581, 0, 28.056)" fill="#1a1818"/>
          </g>
          <g id="Group_168" data-name="Group 168" transform="translate(21.701 0.169)">
            <rect id="Rectangle_569" data-name="Rectangle 569" width="32.309" height="1.591" transform="translate(0 28.051) rotate(-60.25)" fill="#1a1818"/>
          </g>
          <g id="Group_169" data-name="Group 169" transform="translate(28.942 0.247)">
            <rect id="Rectangle_570" data-name="Rectangle 570" width="30.52" height="1.592" transform="translate(0 28.056) rotate(-66.819)" fill="#1a1818"/>
          </g>
          <g id="Group_170" data-name="Group 170" transform="translate(36.178 0.345)">
            <rect id="Rectangle_571" data-name="Rectangle 571" width="29.175" height="1.592" transform="translate(0 28.05) rotate(-74.042)" fill="#1a1818"/>
          </g>
          <g id="Group_171" data-name="Group 171" transform="translate(43.435 0.45)">
            <rect id="Rectangle_572" data-name="Rectangle 572" width="28.337" height="1.592" transform="translate(0 28.052) rotate(-81.87)" fill="#1a1818"/>
          </g>
          <g id="Group_172" data-name="Group 172" transform="translate(50.704 0.563)">
            <rect id="Rectangle_573" data-name="Rectangle 573" width="1.592" height="28.052" fill="#1a1818"/>
          </g>
          <g id="Group_173" data-name="Group 173" transform="translate(53.982 0.45)">
            <rect id="Rectangle_574" data-name="Rectangle 574" width="1.592" height="28.337" transform="translate(0 0.225) rotate(-8.13)" fill="#1a1818"/>
          </g>
          <g id="Group_174" data-name="Group 174" transform="translate(57.273 0.344)">
            <rect id="Rectangle_575" data-name="Rectangle 575" width="1.592" height="29.175" transform="translate(0 0.437) rotate(-15.945)" fill="#1a1818"/>
          </g>
          <g id="Group_175" data-name="Group 175" transform="translate(60.576 0.249)">
            <rect id="Rectangle_576" data-name="Rectangle 576" width="1.592" height="30.52" transform="translate(0 0.627) rotate(-23.199)" fill="#1a1818"/>
          </g>
          <g id="Group_176" data-name="Group 176" transform="translate(63.886 0.168)">
            <rect id="Rectangle_577" data-name="Rectangle 577" width="1.591" height="32.309" transform="translate(0 0.79) rotate(-29.745)" fill="#1a1818"/>
          </g>
          <g id="Group_177" data-name="Group 177" transform="translate(67.198 0.1)">
            <rect id="Rectangle_578" data-name="Rectangle 578" width="1.592" height="34.473" transform="translate(0 0.925) rotate(-35.538)" fill="#1a1818"/>
          </g>
          <g id="Group_178" data-name="Group 178" transform="translate(70.511 0.045)">
            <rect id="Rectangle_579" data-name="Rectangle 579" width="1.592" height="36.947" transform="matrix(0.759, -0.651, 0.651, 0.759, 0, 1.036)" fill="#1a1818"/>
          </g>
          <g id="Group_179" data-name="Group 179" transform="translate(73.822)">
            <rect id="Rectangle_580" data-name="Rectangle 580" width="1.592" height="39.672" transform="translate(0 1.125) rotate(-45)" fill="#1a1818"/>
          </g>
        </g>
      </g>
      <g id="Group_182" data-name="Group 182" transform="translate(37.124 35.681)">
        <path id="Path_240" data-name="Path 240" d="M197.753,196.3l-2.245,2.244h-6.361l-2.638-2.638v-8.114l2.638-2.638h6.223l2.244,2.245-2.006,2.01-1.615-1.616h-3.448l-1.083,1.084v5.948l1.083,1.083h3.584l1.615-1.615Z" transform="translate(-186.508 -185.154)" fill="#1a1818"/>
        <path id="Path_241" data-name="Path 241" d="M195.1,215.67l-2.737-4.962h-2.9v4.962h-2.955V202.279h9.021l2.2,2.206v4l-2.146,2.166,2.8,5.022Zm-5.632-7.581h4.648l.669-.689v-1.832l-.669-.65h-4.648Z" transform="translate(-186.508 -184.032)" fill="#1a1818"/>
        <path id="Path_242" data-name="Path 242" d="M206.356,204.917v2.717h6.813v2.638h-6.813v2.759h7.8v2.638H203.4V202.279h10.752v2.638Z" transform="translate(-185.401 -184.032)" fill="#1a1818"/>
      </g>
    </g>
    <g id="Group_257" data-name="Group 257" transform="translate(738 2946.681)">
      <path id="Path_240-2" data-name="Path 240" d="M197.753,196.3l-2.245,2.244h-6.361l-2.638-2.638v-8.114l2.638-2.638h6.223l2.244,2.245-2.006,2.01-1.615-1.616h-3.448l-1.083,1.084v5.948l1.083,1.083h3.584l1.615-1.615Z" transform="translate(-186.508 -185.154)" fill="#1a1818"/>
      <path id="Path_241-2" data-name="Path 241" d="M195.1,215.67l-2.737-4.962h-2.9v4.962h-2.955V202.279h9.021l2.2,2.206v4l-2.146,2.166,2.8,5.022Zm-5.632-7.581h4.648l.669-.689v-1.832l-.669-.65h-4.648Z" transform="translate(-186.508 -184.032)" fill="#1a1818"/>
      <path id="Path_242-2" data-name="Path 242" d="M206.356,204.917v2.717h6.813v2.638h-6.813v2.759h7.8v2.638H203.4V202.279h10.752v2.638Z" transform="translate(-185.401 -184.032)" fill="#1a1818"/>
    </g>
    <g id="Group_258" data-name="Group 258" transform="translate(380.332 2809.123)">
      <g id="Group_250" data-name="Group 250" transform="translate(151.668 137.878)">
        <g id="Group_201" data-name="Group 201" transform="translate(0 0)">
          <g id="Group_186" data-name="Group 186" transform="translate(0 0)">
            <rect id="Rectangle_583" data-name="Rectangle 583" width="1.589" height="39.616" transform="translate(0 1.124) rotate(-45)" fill="#1a1818"/>
          </g>
          <g id="Group_187" data-name="Group 187" transform="translate(0.045 7.225)">
            <rect id="Rectangle_584" data-name="Rectangle 584" width="1.59" height="36.895" transform="matrix(0.651, -0.759, 0.759, 0.651, 0, 1.207)" fill="#1a1818"/>
          </g>
          <g id="Group_188" data-name="Group 188" transform="translate(0.1 14.448)">
            <rect id="Rectangle_585" data-name="Rectangle 585" width="1.59" height="34.425" transform="translate(0 1.294) rotate(-54.462)" fill="#1a1818"/>
          </g>
          <g id="Group_189" data-name="Group 189" transform="translate(0.168 21.672)">
            <rect id="Rectangle_586" data-name="Rectangle 586" width="1.589" height="32.264" transform="translate(0 1.38) rotate(-60.255)" fill="#1a1818"/>
          </g>
          <g id="Group_190" data-name="Group 190" transform="translate(0.249 28.898)">
            <rect id="Rectangle_587" data-name="Rectangle 587" width="1.59" height="30.477" transform="translate(0 1.461) rotate(-66.801)" fill="#1a1818"/>
          </g>
          <g id="Group_191" data-name="Group 191" transform="translate(0.344 36.131)">
            <rect id="Rectangle_588" data-name="Rectangle 588" width="1.59" height="29.134" transform="translate(0 1.529) rotate(-74.055)" fill="#1a1818"/>
          </g>
          <g id="Group_192" data-name="Group 192" transform="translate(0.45 43.374)">
            <rect id="Rectangle_589" data-name="Rectangle 589" width="1.589" height="28.297" transform="translate(0 1.573) rotate(-81.87)" fill="#1a1818"/>
          </g>
          <g id="Group_193" data-name="Group 193" transform="translate(0.562 50.633)">
            <rect id="Rectangle_590" data-name="Rectangle 590" width="28.013" height="1.59" fill="#1a1818"/>
          </g>
          <g id="Group_194" data-name="Group 194" transform="translate(0.45 53.906)">
            <rect id="Rectangle_591" data-name="Rectangle 591" width="28.297" height="1.589" transform="translate(0 4.002) rotate(-8.13)" fill="#1a1818"/>
          </g>
          <g id="Group_195" data-name="Group 195" transform="translate(0.344 57.19)">
            <rect id="Rectangle_592" data-name="Rectangle 592" width="29.134" height="1.59" transform="translate(0 8.01) rotate(-15.958)" fill="#1a1818"/>
          </g>
          <g id="Group_196" data-name="Group 196" transform="translate(0.247 60.496)">
            <rect id="Rectangle_593" data-name="Rectangle 593" width="30.477" height="1.59" transform="translate(0 11.997) rotate(-23.181)" fill="#1a1818"/>
          </g>
          <g id="Group_197" data-name="Group 197" transform="translate(0.168 63.796)">
            <rect id="Rectangle_594" data-name="Rectangle 594" width="32.264" height="1.589" transform="translate(0 16.01) rotate(-29.75)" fill="#1a1818"/>
          </g>
          <g id="Group_198" data-name="Group 198" transform="translate(0.098 67.107)">
            <rect id="Rectangle_595" data-name="Rectangle 595" width="34.425" height="1.59" transform="matrix(0.814, -0.581, 0.581, 0.814, 0, 20.004)" fill="#1a1818"/>
          </g>
          <g id="Group_199" data-name="Group 199" transform="translate(0.044 70.414)">
            <rect id="Rectangle_596" data-name="Rectangle 596" width="36.895" height="1.59" transform="matrix(0.759, -0.651, 0.651, 0.759, 0, 24.008)" fill="#1a1818"/>
          </g>
          <g id="Group_200" data-name="Group 200" transform="translate(0 73.719)">
            <rect id="Rectangle_597" data-name="Rectangle 597" width="39.616" height="1.589" transform="translate(0 28.013) rotate(-45)" fill="#1a1818"/>
          </g>
        </g>
        <g id="Group_217" data-name="Group 217" transform="translate(0 0)">
          <g id="Group_202" data-name="Group 202" transform="translate(73.719)">
            <rect id="Rectangle_598" data-name="Rectangle 598" width="39.616" height="1.589" transform="translate(0 28.013) rotate(-45)" fill="#1a1818"/>
          </g>
          <g id="Group_203" data-name="Group 203" transform="translate(70.414 0.044)">
            <rect id="Rectangle_599" data-name="Rectangle 599" width="36.895" height="1.59" transform="matrix(0.651, -0.759, 0.759, 0.651, 0, 28.015)" fill="#1a1818"/>
          </g>
          <g id="Group_204" data-name="Group 204" transform="translate(67.107 0.098)">
            <rect id="Rectangle_600" data-name="Rectangle 600" width="34.425" height="1.59" transform="matrix(0.581, -0.814, 0.814, 0.581, 0, 28.016)" fill="#1a1818"/>
          </g>
          <g id="Group_205" data-name="Group 205" transform="translate(63.795 0.168)">
            <rect id="Rectangle_601" data-name="Rectangle 601" width="32.264" height="1.589" transform="translate(0 28.011) rotate(-60.25)" fill="#1a1818"/>
          </g>
          <g id="Group_206" data-name="Group 206" transform="translate(60.496 0.247)">
            <rect id="Rectangle_602" data-name="Rectangle 602" width="30.477" height="1.59" transform="translate(0 28.017) rotate(-66.819)" fill="#1a1818"/>
          </g>
          <g id="Group_207" data-name="Group 207" transform="translate(57.19 0.344)">
            <rect id="Rectangle_603" data-name="Rectangle 603" width="29.134" height="1.59" transform="translate(0 28.011) rotate(-74.042)" fill="#1a1818"/>
          </g>
          <g id="Group_208" data-name="Group 208" transform="translate(53.906 0.45)">
            <rect id="Rectangle_604" data-name="Rectangle 604" width="28.297" height="1.589" transform="translate(0 28.013) rotate(-81.87)" fill="#1a1818"/>
          </g>
          <g id="Group_209" data-name="Group 209" transform="translate(50.633 0.562)">
            <rect id="Rectangle_605" data-name="Rectangle 605" width="1.59" height="28.013" fill="#1a1818"/>
          </g>
          <g id="Group_210" data-name="Group 210" transform="translate(43.374 0.45)">
            <rect id="Rectangle_606" data-name="Rectangle 606" width="1.589" height="28.297" transform="translate(0 0.225) rotate(-8.13)" fill="#1a1818"/>
          </g>
          <g id="Group_211" data-name="Group 211" transform="translate(36.13 0.344)">
            <rect id="Rectangle_607" data-name="Rectangle 607" width="1.59" height="29.134" transform="translate(0 0.437) rotate(-15.945)" fill="#1a1818"/>
          </g>
          <g id="Group_212" data-name="Group 212" transform="translate(28.897 0.249)">
            <rect id="Rectangle_608" data-name="Rectangle 608" width="1.59" height="30.477" transform="translate(0 0.626) rotate(-23.199)" fill="#1a1818"/>
          </g>
          <g id="Group_213" data-name="Group 213" transform="translate(21.672 0.168)">
            <rect id="Rectangle_609" data-name="Rectangle 609" width="1.589" height="32.264" transform="translate(0 0.788) rotate(-29.745)" fill="#1a1818"/>
          </g>
          <g id="Group_214" data-name="Group 214" transform="translate(14.448 0.1)">
            <rect id="Rectangle_610" data-name="Rectangle 610" width="1.59" height="34.425" transform="translate(0 0.924) rotate(-35.538)" fill="#1a1818"/>
          </g>
          <g id="Group_215" data-name="Group 215" transform="translate(7.225 0.045)">
            <rect id="Rectangle_611" data-name="Rectangle 611" width="1.59" height="36.895" transform="matrix(0.759, -0.651, 0.651, 0.759, 0, 1.035)" fill="#1a1818"/>
          </g>
          <g id="Group_216" data-name="Group 216" transform="translate(0 0)">
            <rect id="Rectangle_612" data-name="Rectangle 612" width="1.589" height="39.616" transform="translate(0 1.124) rotate(-45)" fill="#1a1818"/>
          </g>
        </g>
        <g id="Group_233" data-name="Group 233" transform="translate(73.719 0)">
          <g id="Group_218" data-name="Group 218" transform="translate(0 73.719)">
            <rect id="Rectangle_613" data-name="Rectangle 613" width="1.589" height="39.616" transform="translate(0 1.124) rotate(-45)" fill="#1a1818"/>
          </g>
          <g id="Group_219" data-name="Group 219" transform="translate(0.045 70.413)">
            <rect id="Rectangle_614" data-name="Rectangle 614" width="1.59" height="36.895" transform="matrix(0.651, -0.759, 0.759, 0.651, 0, 1.207)" fill="#1a1818"/>
          </g>
          <g id="Group_220" data-name="Group 220" transform="translate(0.1 67.105)">
            <rect id="Rectangle_615" data-name="Rectangle 615" width="1.59" height="34.425" transform="translate(0 1.294) rotate(-54.462)" fill="#1a1818"/>
          </g>
          <g id="Group_221" data-name="Group 221" transform="translate(0.168 63.797)">
            <rect id="Rectangle_616" data-name="Rectangle 616" width="1.589" height="32.264" transform="translate(0 1.38) rotate(-60.255)" fill="#1a1818"/>
          </g>
          <g id="Group_222" data-name="Group 222" transform="translate(0.249 60.491)">
            <rect id="Rectangle_617" data-name="Rectangle 617" width="1.59" height="30.477" transform="translate(0 1.461) rotate(-66.801)" fill="#1a1818"/>
          </g>
          <g id="Group_223" data-name="Group 223" transform="translate(0.344 57.193)">
            <rect id="Rectangle_618" data-name="Rectangle 618" width="1.59" height="29.134" transform="translate(0 1.529) rotate(-74.055)" fill="#1a1818"/>
          </g>
          <g id="Group_224" data-name="Group 224" transform="translate(0.45 53.906)">
            <rect id="Rectangle_619" data-name="Rectangle 619" width="1.589" height="28.297" transform="translate(0 1.573) rotate(-81.87)" fill="#1a1818"/>
          </g>
          <g id="Group_225" data-name="Group 225" transform="translate(0.562 50.633)">
            <rect id="Rectangle_620" data-name="Rectangle 620" width="28.013" height="1.59" fill="#1a1818"/>
          </g>
          <g id="Group_226" data-name="Group 226" transform="translate(0.45 43.374)">
            <rect id="Rectangle_621" data-name="Rectangle 621" width="28.297" height="1.589" transform="translate(0 4.002) rotate(-8.13)" fill="#1a1818"/>
          </g>
          <g id="Group_227" data-name="Group 227" transform="translate(0.344 36.128)">
            <rect id="Rectangle_622" data-name="Rectangle 622" width="29.134" height="1.59" transform="translate(0 8.01) rotate(-15.958)" fill="#1a1818"/>
          </g>
          <g id="Group_228" data-name="Group 228" transform="translate(0.247 28.902)">
            <rect id="Rectangle_623" data-name="Rectangle 623" width="30.477" height="1.59" transform="translate(0 11.997) rotate(-23.181)" fill="#1a1818"/>
          </g>
          <g id="Group_229" data-name="Group 229" transform="translate(0.168 21.671)">
            <rect id="Rectangle_624" data-name="Rectangle 624" width="32.264" height="1.589" transform="translate(0 16.01) rotate(-29.75)" fill="#1a1818"/>
          </g>
          <g id="Group_230" data-name="Group 230" transform="translate(0.098 14.451)">
            <rect id="Rectangle_625" data-name="Rectangle 625" width="34.425" height="1.59" transform="matrix(0.814, -0.581, 0.581, 0.814, 0, 20.004)" fill="#1a1818"/>
          </g>
          <g id="Group_231" data-name="Group 231" transform="translate(0.044 7.226)">
            <rect id="Rectangle_626" data-name="Rectangle 626" width="36.895" height="1.59" transform="matrix(0.759, -0.651, 0.651, 0.759, 0, 24.009)" fill="#1a1818"/>
          </g>
          <g id="Group_232" data-name="Group 232" transform="translate(0)">
            <rect id="Rectangle_627" data-name="Rectangle 627" width="39.616" height="1.589" transform="translate(0 28.013) rotate(-45)" fill="#1a1818"/>
          </g>
        </g>
        <g id="Group_249" data-name="Group 249" transform="translate(0 73.719)">
          <g id="Group_234" data-name="Group 234" transform="translate(0 0)">
            <rect id="Rectangle_628" data-name="Rectangle 628" width="39.616" height="1.589" transform="translate(0 28.013) rotate(-45)" fill="#1a1818"/>
          </g>
          <g id="Group_235" data-name="Group 235" transform="translate(7.226 0.044)">
            <rect id="Rectangle_629" data-name="Rectangle 629" width="36.895" height="1.59" transform="matrix(0.651, -0.759, 0.759, 0.651, 0, 28.015)" fill="#1a1818"/>
          </g>
          <g id="Group_236" data-name="Group 236" transform="translate(14.451 0.098)">
            <rect id="Rectangle_630" data-name="Rectangle 630" width="34.425" height="1.59" transform="matrix(0.581, -0.814, 0.814, 0.581, 0, 28.016)" fill="#1a1818"/>
          </g>
          <g id="Group_237" data-name="Group 237" transform="translate(21.671 0.168)">
            <rect id="Rectangle_631" data-name="Rectangle 631" width="32.264" height="1.589" transform="translate(0 28.011) rotate(-60.25)" fill="#1a1818"/>
          </g>
          <g id="Group_238" data-name="Group 238" transform="translate(28.901 0.247)">
            <rect id="Rectangle_632" data-name="Rectangle 632" width="30.477" height="1.59" transform="translate(0 28.017) rotate(-66.819)" fill="#1a1818"/>
          </g>
          <g id="Group_239" data-name="Group 239" transform="translate(36.127 0.344)">
            <rect id="Rectangle_633" data-name="Rectangle 633" width="29.134" height="1.59" transform="translate(0 28.011) rotate(-74.042)" fill="#1a1818"/>
          </g>
          <g id="Group_240" data-name="Group 240" transform="translate(43.374 0.45)">
            <rect id="Rectangle_634" data-name="Rectangle 634" width="28.297" height="1.589" transform="translate(0 28.013) rotate(-81.87)" fill="#1a1818"/>
          </g>
          <g id="Group_241" data-name="Group 241" transform="translate(50.633 0.562)">
            <rect id="Rectangle_635" data-name="Rectangle 635" width="1.59" height="28.013" fill="#1a1818"/>
          </g>
          <g id="Group_242" data-name="Group 242" transform="translate(53.906 0.45)">
            <rect id="Rectangle_636" data-name="Rectangle 636" width="1.589" height="28.297" transform="translate(0 0.225) rotate(-8.13)" fill="#1a1818"/>
          </g>
          <g id="Group_243" data-name="Group 243" transform="translate(57.193 0.344)">
            <rect id="Rectangle_637" data-name="Rectangle 637" width="1.59" height="29.134" transform="translate(0 0.437) rotate(-15.945)" fill="#1a1818"/>
          </g>
          <g id="Group_244" data-name="Group 244" transform="translate(60.491 0.249)">
            <rect id="Rectangle_638" data-name="Rectangle 638" width="1.59" height="30.477" transform="translate(0 0.626) rotate(-23.199)" fill="#1a1818"/>
          </g>
          <g id="Group_245" data-name="Group 245" transform="translate(63.796 0.168)">
            <rect id="Rectangle_639" data-name="Rectangle 639" width="1.589" height="32.264" transform="translate(0 0.788) rotate(-29.745)" fill="#1a1818"/>
          </g>
          <g id="Group_246" data-name="Group 246" transform="translate(67.104 0.1)">
            <rect id="Rectangle_640" data-name="Rectangle 640" width="1.59" height="34.425" transform="translate(0 0.924) rotate(-35.538)" fill="#1a1818"/>
          </g>
          <g id="Group_247" data-name="Group 247" transform="translate(70.412 0.045)">
            <rect id="Rectangle_641" data-name="Rectangle 641" width="1.59" height="36.895" transform="matrix(0.759, -0.651, 0.651, 0.759, 0, 1.035)" fill="#1a1818"/>
          </g>
          <g id="Group_248" data-name="Group 248" transform="translate(73.719 0)">
            <rect id="Rectangle_642" data-name="Rectangle 642" width="1.589" height="39.616" transform="translate(0 1.124) rotate(-45)" fill="#1a1818"/>
          </g>
        </g>
      </g>
      <g id="Group_255" data-name="Group 255" transform="translate(151.668 249.074)">
        <g id="Group_253" data-name="Group 253" transform="translate(0 4.058)">
          <g id="Group_251" data-name="Group 251" transform="translate(40.183)">
            <path id="Path_246" data-name="Path 246" d="M199.082,260.738l-2.071,2.071h-5.179l-2.4-2.4v-6.614l2.4-2.4h5.061l2.071,2.073-.942.965-1.718-1.718h-3.836l-1.577,1.6v5.6l1.577,1.577h3.954l1.718-1.718Z" transform="translate(-189.432 -245.862)" fill="#1a1818"/>
            <path id="Path_247" data-name="Path 247" d="M211.246,253.795v6.614l-2.4,2.4h-5.272l-2.4-2.4v-6.614l2.4-2.4h5.272Zm-1.461,6.12v-5.6l-1.577-1.6h-4l-1.577,1.6v5.6l1.577,1.577h4Z" transform="translate(-188.68 -245.862)" fill="#1a1818"/>
            <path id="Path_248" data-name="Path 248" d="M223.6,253.418v9.391h-1.318l-.07-2.377-2.378,2.377h-4.307l-1.93-1.929v-2.59l1.671-1.671,6.873-.448v-2.212l-1.27-1.247h-4.4l-1.577,1.552-.965-.965,1.906-1.907h5.744Zm-1.461,5.649v-1.6l-6.19.423-.895.894v1.6l1.131,1.129h3.507Z" transform="translate(-187.884 -245.862)" fill="#1a1818"/>
            <path id="Path_249" data-name="Path 249" d="M236.246,260.738l-2.071,2.071H229l-2.4-2.4v-6.614l2.4-2.4h5.061l2.073,2.073-.942.965-1.718-1.718h-3.837l-1.577,1.6v5.6l1.577,1.577h3.953l1.721-1.718Z" transform="translate(-187.052 -245.862)" fill="#1a1818"/>
            <path id="Path_250" data-name="Path 250" d="M248.385,253.751v9.391h-1.461v-8.85l-1.247-1.247h-2.964l-2.52,2.518v7.579h-1.459V246.195h1.459v7.932l2.378-2.4h3.789Z" transform="translate(-186.274 -246.195)" fill="#1a1818"/>
          </g>
          <g id="Group_252" data-name="Group 252" transform="translate(0 5.531)">
            <path id="Path_251" data-name="Path 251" d="M161.254,260.9l-1.913,1.913h-5.423l-2.249-2.248v-6.918l2.249-2.249h5.305l1.913,1.914-1.711,1.713-1.378-1.378h-2.939l-.923.924v5.071l.923.924h3.056l1.378-1.378Z" transform="translate(-151.668 -251.393)" fill="#1a1818"/>
            <path id="Path_252" data-name="Path 252" d="M171.159,262.809l-2.333-4.23h-2.468v4.23h-2.52V251.393h7.691l1.879,1.881v3.408l-1.829,1.846,2.383,4.281Zm-4.8-6.463h3.963l.57-.587V254.2l-.57-.554h-3.963Z" transform="translate(-150.889 -251.393)" fill="#1a1818"/>
            <path id="Path_253" data-name="Path 253" d="M179.128,253.642v2.318h5.809v2.249h-5.809v2.352h6.648v2.248h-9.167V251.393h9.167v2.249Z" transform="translate(-150.071 -251.393)" fill="#1a1818"/>
          </g>
        </g>
        <g id="Group_254" data-name="Group 254" transform="translate(0.403)">
          <path id="Path_254" data-name="Path 254" d="M157.9,243.732h-2.171v5.512h-1.513v-5.512h-2.171v-1.351H157.9Z" transform="translate(-152.047 -242.381)" fill="#1a1818"/>
          <path id="Path_255" data-name="Path 255" d="M166.3,242.381v6.863h-1.514v-2.806h-2.826v2.806h-1.514v-6.863h1.514v2.7h2.826v-2.7Z" transform="translate(-151.509 -242.381)" fill="#1a1818"/>
          <path id="Path_256" data-name="Path 256" d="M170.8,243.732v1.393h3.491v1.352H170.8v1.413h4v1.353h-5.512v-6.863H174.8v1.351Z" transform="translate(-150.943 -242.381)" fill="#1a1818"/>
        </g>
      </g>
    </g>
  </g>
</svg>
