<svg xmlns="http://www.w3.org/2000/svg" width="788" height="300" viewBox="0 0 788 300"><g transform="translate(-326 -2518)"><rect width="788" height="300" transform="translate(326 2518)" fill="#fff"/><g transform="translate(326 2518)"><path d="M34.674,48.278a25.1,25.1,0,1,0-19.162,0,25.1,25.1,0,1,0,19.162,0ZM46.382,25.092A21.311,21.311,0,0,1,27,46.282V3.9a21.311,21.311,0,0,1,19.386,21.2Zm-42.559,0A21.305,21.305,0,0,1,23.189,3.9V46.282A21.305,21.305,0,0,1,3.823,25.092Zm0,46.379a21.318,21.318,0,0,1,19.366-21.2V92.668A21.311,21.311,0,0,1,3.823,71.471Zm23.186,21.2V50.274a21.28,21.28,0,0,1,0,42.393Z" transform="translate(0.009 0.019)" fill="#231f20"/><path d="M154.551,16.54c-.638-7.11-6.377-8.972-13.066-8.972s-11.759,2.621-11.759,7.34c0,5.414,5.057,6.689,15.19,8.379,7.569,1.275,15.132,3.029,15.132,11,0,10.2-9.253,12.983-17.345,12.983-10.535,0-18.219-3.609-18.863-14.782h4.311c.759,8.73,6.575,10.841,14.552,10.841,6.23,0,12.69-1.683,12.69-8.29,0-6.377-7.569-7.1-15.132-8.29-9.9-1.575-15.2-4.368-15.2-11.064,0-9.081,8.386-12.046,16.42-12.046,8.494,0,17.052,3.029,17.339,12.926Z" transform="translate(-44.864 -1.306)" fill="#231f20"/><path d="M213.48,34.172H191.595L185.945,46.8H181.29L200.146,5.24h5.012L224.015,46.8h-5.006ZM202.6,9.551l-9.253,20.661h18.372Z" transform="translate(-65.679 -1.886)" fill="#231f20"/><path d="M296.2,5.24h6.109V46.8h-4.3V10.883h-.121L279.545,46.8h-3.954L257.315,10.826h-.121V46.8h-4.3V5.24h6.288L277.67,41.39Z" transform="translate(-91.62 -1.886)" fill="#231f20"/><path d="M127.77,81.35H151.4c8.15,0,11.587,4.6,11.587,10.477a8.789,8.789,0,0,1-7.161,8.928v.115a9.826,9.826,0,0,1,8.787,10.2c0,8.672-7.333,11.874-13.736,11.874H127.77Zm4.3,18.046h17.058c5.822,0,9.565-1.868,9.565-7.391,0-5.1-3.373-6.7-8.092-6.7H132.113Zm0,19.558h18.11c5.586,0,9.776-2.213,9.776-7.914,0-5.994-3.724-7.652-8.73-7.652H132.1Z" transform="translate(-46.287 -29.462)" fill="#231f20"/><path d="M214.568,79.71c11.816,0,22.587,7.161,22.587,21.828s-10.77,21.828-22.587,21.828S192,116.2,192,101.538,202.751,79.71,214.568,79.71Zm0,39.7c9.138,0,17.925-5.357,17.925-17.855S223.706,83.7,214.568,83.7s-17.925,5.357-17.925,17.855,8.787,17.881,17.925,17.881Z" transform="translate(-69.559 -28.868)" fill="#231f20"/><path d="M291.467,79.71c11.816,0,22.58,7.161,22.58,21.828s-10.764,21.828-22.58,21.828S268.88,116.2,268.88,101.538,279.65,79.71,291.467,79.71Zm0,39.7c9.138,0,17.925-5.357,17.925-17.855S300.6,83.7,291.467,83.7s-17.932,5.357-17.932,17.855,8.813,17.881,17.932,17.881Z" transform="translate(-97.414 -28.868)" fill="#231f20"/><path d="M358.419,85.31h-16.3V81.35h36.909v3.96h-16.3v37.623h-4.311Z" transform="translate(-123.95 -29.462)" fill="#231f20"/></g></g></svg>