<svg xmlns="http://www.w3.org/2000/svg" width="788" height="300" viewBox="0 0 788 300"><g transform="translate(-326 -2947)"><rect width="788" height="300" transform="translate(326 2947)" fill="#fff"/><g transform="translate(326.088 2947)"><path d="M47.526,72.437a36.985,36.985,0,1,0-21.09,0,36.985,36.985,0,1,0,21.09,0ZM70.9,36.986A33.959,33.959,0,0,1,38.515,70.865V3.108A33.959,33.959,0,0,1,70.9,36.986Zm-67.833,0A33.959,33.959,0,0,1,35.447,3.108V70.865A33.959,33.959,0,0,1,3.064,36.986Zm0,70.9A33.959,33.959,0,0,1,35.447,74.009v67.753A33.95,33.95,0,0,1,3.064,107.888Zm35.451,33.874V74.009a33.912,33.912,0,0,1,0,67.753Z" transform="translate(0.007 -0.002)" fill="#231f20"/><path d="M216.268,272.48c-5.723.469-7.219,5.11-7.219,10.5s2.113,9.471,5.917,9.471c4.357,0,5.389-4.074,6.762-12.231,1.031-6.1,2.439-12.189,8.875-12.189,8.2,0,10.452,7.451,10.452,13.947,0,8.487-2.9,14.674-11.906,15.194V293.7c7.033-.609,8.719-5.3,8.719-11.724,0-5.012-1.357-10.215-6.657-10.215-5.11,0-5.718,6.094-6.7,12.185-1.268,7.971-3.516,12.256-8.909,12.256-7.312,0-9.721-6.762-9.721-13.224,0-6.842,2.443-13.731,10.41-13.947Z" transform="translate(-118.864 -154.751)" fill="#231f20"/><path d="M231.13,194.282v17.628l10.143,4.548v3.753L207.8,205.022v-4.036L241.273,185.8v4.032Zm-19.864,8.77,16.643,7.451V195.711Z" transform="translate(-119.973 -107.275)" fill="#231f20"/><path d="M207.813,90.97V86.05h33.46v3.466H212.36v.093l28.913,14.771v3.2L212.3,122.3v.076h28.972v3.466H207.8V120.77l29.124-14.877Z" transform="translate(-119.973 -49.683)" fill="#231f20"/><path d="M318.81,291.721V272.7c0-6.559,3.7-9.328,8.453-9.328a7.076,7.076,0,0,1,7.185,5.769h.08a7.913,7.913,0,0,1,8.208-7.083c6.986,0,9.56,5.917,9.56,11.065v18.6Zm14.53-3.466V274.519c0-4.687-1.5-7.688-5.951-7.688-4.078,0-5.393,2.718-5.393,6.513v14.894Zm15.752,0V273.674c0-4.5-1.779-7.874-6.373-7.874-4.827,0-6.187,3-6.187,7.033v15.405Z" transform="translate(-184.066 -151.304)" fill="#231f20"/><path d="M316.81,186.363c0-9.514,5.769-18.173,17.582-18.173s17.578,8.673,17.578,18.173-5.769,18.173-17.578,18.173S316.81,195.881,316.81,186.363Zm31.973,0c0-7.358-4.315-14.433-14.37-14.433s-14.4,7.075-14.4,14.433,4.315,14.442,14.4,14.442S348.783,193.726,348.783,186.363Z" transform="translate(-182.911 -97.107)" fill="#231f20"/><path d="M316.81,92.923c0-9.518,5.769-18.173,17.582-18.173s17.578,8.656,17.578,18.173S346.2,111.1,334.392,111.1,316.81,102.437,316.81,92.923Zm31.973,0c0-7.362-4.315-14.437-14.37-14.437s-14.4,7.075-14.4,14.437,4.315,14.437,14.4,14.437S348.783,100.282,348.783,92.923Z" transform="translate(-182.911 -43.159)" fill="#231f20"/><path d="M322,18.057V31.184H318.81V1.46H322V14.587h30.282v3.47Z" transform="translate(-184.066 -0.844)" fill="#231f20"/></g><g transform="translate(635.315 2947)"><path d="M272.964,72.168a36.854,36.854,0,1,0-21.018,0,36.854,36.854,0,1,0,21.018,0Zm23.287-35.324A33.836,33.836,0,0,1,263.983,70.6V3.092a33.832,33.832,0,0,1,32.268,33.752Zm-67.588,0A33.811,33.811,0,0,1,260.927,3.092V70.6A33.811,33.811,0,0,1,228.663,36.844Zm0,70.644a33.811,33.811,0,0,1,32.264-33.752v67.508A33.811,33.811,0,0,1,228.663,107.488Zm35.32,33.756V73.736a33.79,33.79,0,0,1,0,67.508Z" transform="translate(-130.251 0.01)" fill="#231f20"/><path d="M135.225,28.6c5.7-.469,7.185-5.072,7.185-10.465S140.331,8.7,136.527,8.7c-4.345,0-5.372,4.066-6.724,12.193-1.027,6.073-2.43,12.142-8.829,12.142-8.174,0-10.414-7.426-10.414-13.917,0-8.453,2.891-14.619,11.859-15.135V7.437c-7,.609-8.685,5.279-8.685,11.677,0,5,1.352,10.181,6.631,10.181,5.093,0,5.7-6.073,6.678-12.142,1.268-7.941,3.5-12.193,8.875-12.193,7.286,0,9.666,6.728,9.666,13.174,0,6.821-2.43,13.685-10.372,13.917Z" transform="translate(-63.833 -2.294)" fill="#231f20"/><path d="M122.693,99.362V81.8L112.55,77.266V73.53L145.9,88.66v4.024l-33.35,15.13V103.8Zm19.754-8.727L125.867,83.2V97.958Z" transform="translate(-64.982 -42.449)" fill="#231f20"/><path d="M145.91,194.946v4.886H112.56v-3.453h28.824v-.093L112.56,181.57V178.4l28.866-14.666v-.1H112.56V160.18h33.35v5.042L116.9,180.074Z" transform="translate(-64.988 -92.478)" fill="#231f20"/><path d="M35.346,8.74V27.7c0,6.534-3.69,9.3-8.41,9.3a7.028,7.028,0,0,1-7.147-5.748H19.7a7.884,7.884,0,0,1-8.178,7.05C4.561,38.3,2,32.416,2,27.281V8.74ZM5.17,12.193V26.719c0,4.484,1.775,7.848,6.34,7.848,4.81,0,6.166-2.992,6.166-7.007V12.193Zm15.7,0V25.878c0,4.674,1.5,7.662,5.917,7.662,4.066,0,5.372-2.709,5.372-6.492V12.193Z" transform="translate(-1.155 -5.042)" fill="#231f20"/><path d="M35.032,104.593c0,9.48-5.748,18.123-17.518,18.123S0,114.072,0,104.593,5.748,86.47,17.514,86.47,35.032,95.109,35.032,104.593Zm-31.858,0c0,7.333,4.3,14.37,14.34,14.37s14.34-7.05,14.34-14.37-4.3-14.37-14.34-14.37-14.34,7.037-14.34,14.37Z" transform="translate(0 -49.92)" fill="#231f20"/><path d="M35.032,197.7c0,9.48-5.748,18.118-17.518,18.118S0,207.182,0,197.7,5.748,179.58,17.514,179.58,35.032,188.21,35.032,197.7Zm-31.858,0c0,7.333,4.3,14.37,14.34,14.37s14.34-7.05,14.34-14.37-4.3-14.391-14.34-14.391S3.174,190.37,3.174,197.7Z" transform="translate(0 -103.679)" fill="#231f20"/><path d="M32.168,281.331V268.25h3.178v29.614H32.168V284.788H2v-3.457Z" transform="translate(-1.155 -154.873)" fill="#231f20"/></g><g transform="translate(962.541 2947)"><path d="M46.824,72.405a36.89,36.89,0,1,0-19.819,0,36.886,36.886,0,1,0,19.819,0Zm24.27-35.531A34.221,34.221,0,0,1,38.251,71.023V2.726A34.221,34.221,0,0,1,71.083,36.874Zm-68.362,0A34.221,34.221,0,0,1,35.575,2.726v68.3A34.221,34.221,0,0,1,2.721,36.874Zm-.011,71.08A34.221,34.221,0,0,1,35.563,73.8v68.29A34.224,34.224,0,0,1,2.721,107.954ZM38.255,142.1V73.79a34.179,34.179,0,0,1,0,68.3Z" transform="translate(-0.022 0.018)" fill="#231f20"/><path d="M255.026,9.3c-.434-5.047-4.53-6.372-9.283-6.372s-8.354,1.865-8.354,5.213c0,3.847,3.6,4.757,10.793,5.957,5.379.906,10.751,2.152,10.751,7.814,0,7.241-6.572,9.226-12.322,9.226-7.486,0-12.945-2.563-13.4-10.506h3.062c.536,6.2,4.673,7.694,10.34,7.694,4.424,0,9.015-1.2,9.015-5.874,0-4.53-5.376-5.043-10.751-5.915-7.033-1.133-10.8-3.1-10.8-7.86,0-6.452,5.957-8.558,11.665-8.558,6.04,0,12.118,2.152,12.322,9.181Z" transform="translate(-145.181 -0.068)" fill="#231f20"/><path d="M325.033,22.645H309.48l-4.009,8.973H302.16l13.4-29.528h3.56l13.4,29.528h-3.556ZM317.3,5.152l-6.576,14.681h13.065Z" transform="translate(-188.102 -1.294)" fill="#231f20"/><path d="M268.682,102.57h4.341V132.1h-3.058V106.583h-.087L256.851,132.1h-2.812l-12.986-25.561h-.094V132.1H237.9V102.57h4.466l13.148,25.67Z" transform="translate(-148.1 -63.843)" fill="#231f20"/><path d="M237.93,203.06h16.791c5.787,0,8.23,3.265,8.23,7.444a6.219,6.219,0,0,1-5.089,6.327v.083a6.979,6.979,0,0,1,6.248,7.241c0,6.161-5.213,8.433-9.762,8.433H237.93Zm3.058,12.835h12.118c4.153,0,6.8-1.325,6.8-5.251,0-3.6-2.4-4.76-5.749-4.76H240.976Zm0,13.9h12.862c3.971,0,6.95-1.57,6.95-5.621,0-4.262-2.643-5.462-6.2-5.462h-13.62Z" transform="translate(-148.119 -126.397)" fill="#231f20"/><path d="M331.04,201.08c8.4,0,16.048,5.089,16.048,15.512S339.436,232.1,331.04,232.1,315,227.011,315,216.592,322.644,201.08,331.04,201.08Zm0,28.207c6.493,0,12.737-3.805,12.737-12.7s-6.244-12.7-12.737-12.7S318.3,207.7,318.3,216.592,324.547,229.287,331.04,229.287Z" transform="translate(-196.095 -125.165)" fill="#231f20"/><path d="M250.908,301.57c8.4,0,16.044,5.089,16.044,15.512s-7.648,15.508-16.044,15.508S234.86,327.5,234.86,317.082,242.512,301.57,250.908,301.57Zm0,28.207c6.489,0,12.733-3.805,12.733-12.7s-6.244-12.707-12.733-12.707-12.741,3.805-12.741,12.7S244.415,329.777,250.908,329.777Z" transform="translate(-146.208 -187.72)" fill="#231f20"/><path d="M334.342,306.362H322.76V303.55h26.225v2.812H337.4v26.72h-3.062Z" transform="translate(-200.925 -188.952)" fill="#231f20"/></g></g></svg>