<svg xmlns="http://www.w3.org/2000/svg" width="788" height="300" viewBox="0 0 788 300"><g transform="translate(-326 -2947)"><rect width="788" height="300" transform="translate(326 2947)" fill="#fff"/><g transform="translate(207.165 2828.164)"><path d="M147.608,241.077a2.056,2.056,0,0,0-.912,1.567,3.144,3.144,0,0,0,.9,1.922l1.094,1.314,7.509-6.255-.284-1.544.249-.206,2.714,3.259-.249.2-1.466-.554-7.2,6,.281,1.544-.244.206-3.228-3.867a4.6,4.6,0,0,1-1.217-2.709,2.54,2.54,0,0,1,.973-2.083,2.962,2.962,0,0,1,2.2-.735,4.242,4.242,0,0,1,2.1.855,3.79,3.79,0,0,0-.318-.568l1.67-4.76-.33-1.483.235-.2,1.684,2.023-2.261,5.552a7.44,7.44,0,0,1,.583.626l.45.539-.482.5-.571-.686C150.242,240.032,149.014,239.906,147.608,241.077Z" fill="#1a1818"/><path d="M141.918,222.226l-.927,1.19.936,2.276,4.513-1.857-1.555-3.784-2.152-.855-.1-.293,2.249-.677,3.294,8.011-.3.12-1.231-.969-8.677,3.566-.192,1.558-.3.121-2.505-6.1-.818-1.268,2.149-1.133.146.307-.843,1.816,1.417,3.449,4.27-1.753-.936-2.279-1.526-.177-.132-.316,3.093-1.271Z" fill="#1a1818"/><path d="M138.128,205.133a9.6,9.6,0,0,0-.973,2.052,12.5,12.5,0,0,1-1.145,2.444,2.633,2.633,0,0,1-1.985,1.289,2.682,2.682,0,0,1-2.25-.8,4.458,4.458,0,0,1-1.038-2.565l-.015-.1,0-.057a.115.115,0,0,1,0-.054,7.744,7.744,0,0,1,.072-1.685,8.613,8.613,0,0,1,.324-1.345l2.505-.5.046.439a4.569,4.569,0,0,0-1.326.921,3.322,3.322,0,0,0-.858,1.851,4.373,4.373,0,0,0,.021.614,2.833,2.833,0,0,0,.51,1.481,1.493,1.493,0,0,0,1.4.528,1.935,1.935,0,0,0,1.464-1,12.073,12.073,0,0,0,.975-2.218,10.155,10.155,0,0,1,1.177-2.444,2.8,2.8,0,0,1,2.071-1.2,2.736,2.736,0,0,1,2.52.981,5.6,5.6,0,0,1,1.05,2.953,7.618,7.618,0,0,1-.029,1.75,7.987,7.987,0,0,1-.361,1.593l-2.7.513-.048-.439a5.242,5.242,0,0,0,1.647-1.165,2.847,2.847,0,0,0,.723-2.258l-.015-.126c-.186-1.722-.984-2.582-2.169-2.476A2.193,2.193,0,0,0,138.128,205.133Z" fill="#1a1818"/><path d="M131.853,186.29l.4-2.582,2.788.2-.045.35-2.273,1.087-.379,2.155,9.635,1.7,1.005-1.219.312.054-.734,4.192-.321-.057-.52-1.481-9.643-1.7-.374,2.138,1.765,1.805-.08.347-2.689-.76.511-2.58Z" fill="#1a1818"/><path d="M137.646,172.59a5.617,5.617,0,0,1,3.69-7.1,6.66,6.66,0,0,1,7.609,3.945,5.617,5.617,0,0,1-3.693,7.108,6.118,6.118,0,0,1-4.507-.586A6.229,6.229,0,0,1,137.646,172.59Zm3.529-5.908a3.42,3.42,0,0,0-2.508,1.942,3.379,3.379,0,0,0-.132,3.145,6.448,6.448,0,0,0,2.984,2.7,6.33,6.33,0,0,0,3.894.875,3.743,3.743,0,0,0,2.648-5.073,6.339,6.339,0,0,0-2.958-2.7A6.426,6.426,0,0,0,141.175,166.682Z" fill="#1a1818"/><path d="M154.549,151.294a2.069,2.069,0,0,0-1.641-.766,3.154,3.154,0,0,0-1.837,1.073l-1.211,1.21,6.913,6.921,1.512-.419.226.227-3,3-.227-.226.422-1.512-6.634-6.637-1.509.419-.227-.227,3.564-3.563a4.614,4.614,0,0,1,2.591-1.458,2.543,2.543,0,0,1,2.164.78,2.989,2.989,0,0,1,.932,2.127,4.249,4.249,0,0,1-.663,2.169,3.408,3.408,0,0,0,.537-.362l4.9,1.231,1.452-.459.215.215-1.868,1.862-5.742-1.753a7.887,7.887,0,0,1-.565.634l-.5.5-.542-.439.628-.628C155.829,153.824,155.843,152.593,154.549,151.294Z" fill="#1a1818"/><path d="M172.884,144.008l-1.271-.823-2.187,1.133,2.247,4.342,3.638-1.883.666-2.22.284-.13.872,2.19-7.7,3.982-.149-.287.861-1.317-4.316-8.346-1.569-.058-.147-.287,5.862-3.033,1.194-.924,1.32,2.046-.293.17-1.885-.683-3.323,1.716,2.127,4.108,2.186-1.133.046-1.541.3-.152,1.538,2.976Z" fill="#1a1818"/><path d="M184.326,135.722a.947.947,0,1,1,.451,1.839.947.947,0,1,1-.451-1.839Zm2.009,8.2a.943.943,0,1,1-.451-1.831.943.943,0,1,1,.451,1.831Z" fill="#1a1818"/><path d="M216.494,142.069l1.75-8.017-1.279-1.168.069-.315,3.609.789-.069.315-1.652.525-2.216,10.149-.814,0-5.03-11.474-1.874,8.576,1.263,1.165-.069.316-3.573-.781.069-.312,1.636-.534,1.98-9.081-1.234-1.059.066-.316,2.683.585Z" fill="#1a1818"/><path d="M232.754,147.136l.021-1.509-2.127-1.243-2.464,4.212,3.535,2.069,2.229-.625.261.172-1.383,1.9-7.477-4.373.161-.278,1.572.023,4.74-8.1-.789-1.354.161-.278,5.692,3.331,1.415.511-1.022,2.206-.3-.158-.43-1.954-3.223-1.885L231,143.788l2.124,1.242,1.32-.78.295.169-1.69,2.886Z" fill="#1a1818"/><path d="M250.47,152.063l-.247.209-1.409-.465-.006-.005-4.832,7.173L251,155.982l.588-.935-.258-1.478.244-.209,2.746,3.21-.247.213-1.446-.508-4.694,7.3,7.876-3.483-.008-.014-.27-1.576.252-.215,2.253,2.637-.25.215-1.492-.5-9.951,4.4-.594-.7,4.594-7.311-7.956,3.378-.594-.7,5.93-9.187-.3-1.53.244-.209Z" fill="#1a1818"/><path d="M261.554,190.9l1.159-.967-.431-2.422-4.808.858.723,4.028,1.919,1.292.037.312-2.341.181-1.524-8.527.319-.055,1,1.208,9.242-1.647.522-1.483.315-.055,1.16,6.493.53,1.409-2.344.654-.074-.333,1.211-1.6-.655-3.673-4.55.81.436,2.424,1.452.5.057.33-3.291.588Z" fill="#1a1818"/><path d="M259.006,212.16l8.12,1.133,1.067-1.36.319.046L268,215.635l-.319-.049-.651-1.607-10.278-1.437-.057-.812,11.05-5.882-8.686-1.214L258,205.98l-.319-.046.505-3.613.319.043.657,1.587,9.193,1.283.964-1.309.319.046-.379,2.714Z" fill="#1a1818"/><path d="M261.146,233a11.526,11.526,0,0,1-.97,1.024l-2.725-.981.189-.39a4.671,4.671,0,0,0,1.744-.023,3.037,3.037,0,0,0,1.8-1.036,4.359,4.359,0,0,0,.419-.714,3.557,3.557,0,0,0,.048-3.323,7.9,7.9,0,0,0-6.763-3.346A3.794,3.794,0,0,0,252.1,226.6a5.592,5.592,0,0,0-.264.662,3.063,3.063,0,0,0-.066,1.306,1.153,1.153,0,0,0,.563.855l2.229,1.073,1.507-.961.261.126-1.257,2.628-3.968-1.9a5.439,5.439,0,0,1-.2-1.839,6.455,6.455,0,0,1,.646-2.54,5.438,5.438,0,0,1,3.3-3.03,6.765,6.765,0,0,1,7.695,3.722,5.748,5.748,0,0,1-.327,4.628,2.12,2.12,0,0,1-.166.287A8.8,8.8,0,0,1,261.146,233Z" fill="#1a1818"/><path d="M240.995,244.391l-.218.209-1.535-1.77,5.521-5.839.226.215-.37,1.524,6.792,6.427,1.5-.45.224.215-3.007,3.176-.227-.215.477-1.633-7.085-6.7-2.4,2.539Z" fill="#1a1818"/><path d="M233.561,247.946l-.766,1.354,1.721,9.822,1.007.278.158.279-1.529,1.276-.758-.677-8.051-6.8-1.526,0-.161-.278,3.736-2.124.16.279-.771,1.317,2.1,1.805,3.75-2.132-.488-2.66-1.589-.029-.161-.287,3-1.71Zm.226,10.74-1.038-5.658-3.34,1.9Z" fill="#1a1818"/><path d="M207.5,259.756l1.544,8.077,1.638.577.06.315-3.635.7-.06-.316,1.317-1.139-1.954-10.223.754-.316,9.151,8.594-1.653-8.64-1.621-.576-.061-.316,3.6-.689.06.319-1.291,1.13,1.744,9.148,1.558.49.061.319-2.7.513Z" fill="#1a1818"/><path d="M187.9,258.35a5.728,5.728,0,0,1,4.365-.924l4.966.7-.043.309-1.463.583-1.3,9.291,1.248.952-.043.319-5.1-.712a5.575,5.575,0,0,1-3.834-2.054,5.9,5.9,0,0,1-.9-4.436A5.808,5.808,0,0,1,187.9,258.35Zm.032,8.226a3.7,3.7,0,0,0,2.858,1.624l2.094.293,1.409-10.086-2.023-.284a3.826,3.826,0,0,0-3.271.769,5.841,5.841,0,0,0-1.529,3.607A6.242,6.242,0,0,0,187.936,266.576Z" fill="#1a1818"/><path d="M200,281.164A81.164,81.164,0,1,1,281.165,200,81.255,81.255,0,0,1,200,281.164Zm0-160.859A79.7,79.7,0,1,0,279.7,200,79.786,79.786,0,0,0,200,120.305Z" fill="#1a1818"/><path d="M192.989,189.634l-3.13-14.961-7.587,7.587Z" fill="#1a1818"/><path d="M199.715,208.74l19.845-24.648-15.616-15.616a5.577,5.577,0,0,0-7.887,0l-4.664,4.663Z" fill="#1a1818"/><path d="M193.412,193.253l-12.706-9.426-3.815,3.814a10.206,10.206,0,0,0-2.989,7.217v27.259a5.577,5.577,0,0,0,5.577,5.577h20.669Z" fill="#1a1818"/><path d="M223.108,187.641l-2.241-2.241-19.99,26.771,4.061,15.523h15.583a5.577,5.577,0,0,0,5.577-5.577V194.86A10.207,10.207,0,0,0,223.108,187.641Z" fill="#1a1818"/></g><g transform="translate(1359.352 2775.323)"><path d="M-737.846,186.038a7.807,7.807,0,0,0,1.7.32l3.338,5.662,1.686,1.322.011.188H-735.6l-3.713-7.338c-.253.011-.507.011-.76.011h-.7l-.11-.5.914-.011c2.512-.078,3.537-1.576,3.537-3.944,0-2.149-.959-3.537-3.548-3.537h-1.664v13.65l1.62,1.465v.2h-6.313v-.2l1.62-1.454V179.329l-1.62-1.454v-.2h7.293c3.868,0,5.861,1.608,5.861,4C-733.187,184.451-735.4,185.641-737.846,186.038Z" fill="#1a1818"/><path d="M-720.543,191.205a5.414,5.414,0,0,1-4.859,2.589c-3.172,0-5.244-2.3-5.244-5.6,0-3.592,2.292-6.049,5.52-6.049,3.052,0,4.814,2.248,4.814,5.046h-7.37c-.011.132-.011.253-.011.4.066,2.908,1.388,4.638,3.724,4.638a4.97,4.97,0,0,0,3.271-1.179Zm-7.128-4.308,4.495-.242c0-2.787-.7-4.065-2.083-4.065C-726.724,182.59-727.572,184.276-727.671,186.9Z" fill="#1a1818"/><path d="M-711.4,185.454h-.176a14.267,14.267,0,0,0-1.994-2.82,3.158,3.158,0,0,0-.815-.1,1.812,1.812,0,0,0-2.061,1.807c0,1.123,1.19,1.762,2.666,2.467,1.708.826,3.548,1.763,3.548,3.691,0,2.17-2.016,3.294-4.693,3.294a10.168,10.168,0,0,1-4.01-.859l.683-2.843h.209a8.882,8.882,0,0,0,2.082,3.2,6.038,6.038,0,0,0,1.157.121c1.708,0,2.214-.892,2.214-1.839,0-1.267-1.244-1.8-2.787-2.545-1.6-.771-3.448-1.653-3.448-3.669,0-2.192,1.9-3.206,4.517-3.206a10.749,10.749,0,0,1,3.393.628Z" fill="#1a1818"/><path d="M-705.054,182.821v7.965c0,1.179.54,1.807,1.531,1.807a3.769,3.769,0,0,0,2.071-.573l.11.165a4.525,4.525,0,0,1-3.492,1.609,2.865,2.865,0,0,1-3.085-3.074v-7.9h-1.432v-.132l1.531-.705,2.567-2.148h.188v2.6h3.4v.385Z" fill="#1a1818"/><path d="M-688.864,187.977a5.712,5.712,0,0,1-5.938,5.817,5.713,5.713,0,0,1-5.916-5.817,5.748,5.748,0,0,1,5.916-5.828A5.74,5.74,0,0,1-688.864,187.977Zm-5.927,5.431c1.807,0,2.887-2.027,2.887-5.431,0-3.382-1.091-5.442-2.9-5.442s-2.864,2.06-2.864,5.442C-697.666,191.381-696.609,193.408-694.791,193.408Z" fill="#1a1818"/><path d="M-679.42,185.553h-.165c-.551-.782-1.179-1.674-2.347-1.674a2.156,2.156,0,0,0-1.608.8v7.536l1.564,1.134v.177h-5.938v-.177l1.509-1.134V184.11l-1.355-.87v-.188l4.1-.9.121.121v1.906a4.682,4.682,0,0,1,3.7-2.071,2.59,2.59,0,0,1,.959.165Z" fill="#1a1818"/><path d="M-667.939,191.205a5.412,5.412,0,0,1-4.858,2.589c-3.173,0-5.244-2.3-5.244-5.6,0-3.592,2.291-6.049,5.519-6.049,3.052,0,4.815,2.248,4.815,5.046h-7.371c-.011.132-.011.253-.011.4.066,2.908,1.389,4.638,3.724,4.638a4.97,4.97,0,0,0,3.272-1.179Zm-7.128-4.308,4.495-.242c0-2.787-.7-4.065-2.082-4.065C-674.119,182.59-674.968,184.276-675.067,186.9Z" fill="#1a1818"/><path d="M-664.648,182.149a1.612,1.612,0,0,1,1.708,1.653,1.605,1.605,0,0,1-1.708,1.652,1.623,1.623,0,0,1-1.707-1.652A1.617,1.617,0,0,1-664.648,182.149Zm1.708,9.992a1.6,1.6,0,0,1-1.708,1.653,1.617,1.617,0,0,1-1.707-1.653,1.615,1.615,0,0,1,1.707-1.641A1.609,1.609,0,0,1-662.94,192.141Z" fill="#1a1818"/><path d="M-733.77,213.708V203.584l-1.73-1.653v-.176h4.021v.176l-1.74,1.653v14.024l-.981.386-9.915-13.606V215.78l1.73,1.641v.187h-3.967v-.187l1.686-1.641V203.407l-1.675-1.454v-.2h3.856Z" fill="#1a1818"/><path d="M-720.6,215.283a5.412,5.412,0,0,1-4.859,2.589c-3.172,0-5.244-2.3-5.244-5.6,0-3.592,2.292-6.048,5.52-6.048,3.052,0,4.814,2.247,4.814,5.046h-7.37c-.011.132-.011.253-.011.4.066,2.908,1.388,4.638,3.724,4.638a4.965,4.965,0,0,0,3.271-1.179Zm-7.128-4.307,4.494-.242c0-2.787-.7-4.066-2.082-4.066C-726.786,206.668-727.634,208.354-727.733,210.976Z" fill="#1a1818"/><path d="M-708.62,206.7l-1.047,1.157.155.485.187.518,1.674,5.354,2.281-6.379-1.3-1.135v-.187h3.382v.187l-1.476,1.146-3.647,9.761h-.859l-2.5-7.943-3.018,7.943h-.871l-3.47-9.761-1.19-1.146v-.187h5.354v.187l-1.178,1.135,2.1,6.533,2.071-5.53-.275-.97-1.279-1.168v-.187h4.9Z" fill="#1a1818"/><path d="M-689.615,207.219h.2v4.616h-.2l-1.63-2.1h-2.9v7.337h5.278l2.886-3.668.11.011-.573,4.2h-12.394v-.2l1.62-1.454V203.407l-1.62-1.454v-.2h11.722v4.2h-.11l-2.325-3.657h-4.594v6.9h2.9Z" fill="#1a1818"/><path d="M-677.634,217.608v-.176l1.455-1.124v-6.621a1.982,1.982,0,0,0-2.171-2.17,3.3,3.3,0,0,0-2.4.98v7.8l1.454,1.135v.176h-5.827v-.176l1.509-1.135v-8.108l-1.355-.87v-.188l4.1-.9.121.121v1.63a5.583,5.583,0,0,1,3.977-1.751,3.235,3.235,0,0,1,3.46,3.272v6.8l1.509,1.135v.176Z" fill="#1a1818"/><path d="M-662.7,207.087l2.886-1.719.121.034v2.137l-2.457-.1a3.516,3.516,0,0,1,1.256,2.666c0,2.236-2.016,3.878-4.88,3.878a5.977,5.977,0,0,1-2.391-.452,1.484,1.484,0,0,0-.815,1.2c0,.771.639.947,2.016.947h3.14c2.743,0,4.351.948,4.351,3.063,0,2.17-2.49,3.58-6.346,3.58-3.668,0-5.585-.881-5.585-2.247,0-1,.959-1.752,2.259-2.226a1.827,1.827,0,0,1-1.41-1.806,3.286,3.286,0,0,1,1.983-2.688,3.717,3.717,0,0,1-2.082-3.283c0-2.325,2.236-3.845,4.88-3.845A5.542,5.542,0,0,1-662.7,207.087Zm1.222,12.648c0-1.168-.969-1.532-2.357-1.532-.738,0-1.587.044-2.424.044a10.9,10.9,0,0,1-2.468-.22,2.034,2.034,0,0,0-.793,1.52c0,1.521,1.443,2.314,3.944,2.314C-662.87,221.861-661.482,221.1-661.482,219.735Zm-4.3-13.067c-1.41,0-1.983,1.257-1.983,3.438,0,2.2.617,3.426,1.983,3.426s1.983-1.212,1.983-3.426C-663.795,207.913-664.4,206.668-665.778,206.668Z" fill="#1a1818"/><path d="M-654.114,201.017l.132.121V216.3l1.5,1.135v.176h-5.872v-.176l1.509-1.135V202.978l-1.091-.86v-.2Z" fill="#1a1818"/><path d="M-642.319,215.923l1.179,1.024v.132l-3.636.793-.331-1.641a5,5,0,0,1-3.591,1.641c-1.729,0-2.953-.892-2.953-2.445,0-2.457,3.063-3.845,6.467-4.1v-1.333c0-1.443-.738-2.478-2.655-2.478a5.649,5.649,0,0,0-2.93.76l-.155-.209a6.9,6.9,0,0,1,4.771-1.829c3.052,0,3.834,1.619,3.834,3.8Zm-4.859.562a3.024,3.024,0,0,0,1.994-.662v-4.087c-2.192.287-3.646,1.344-3.646,3C-648.83,215.8-648.335,216.485-647.178,216.485Z" fill="#1a1818"/><path d="M-632.455,217.608v-.176l1.455-1.124v-6.621a1.983,1.983,0,0,0-2.171-2.17,3.3,3.3,0,0,0-2.4.98v7.8l1.455,1.135v.176h-5.828v-.176l1.509-1.135v-8.108l-1.355-.87v-.188l4.1-.9.121.121v1.63a5.584,5.584,0,0,1,3.978-1.751,3.234,3.234,0,0,1,3.459,3.272v6.8l1.509,1.135v.176Z" fill="#1a1818"/><path d="M-618.782,201.909l3.812-.9.143.121v14.8l1.179,1.024v.132l-3.625.793-.352-1.685a5.213,5.213,0,0,1-3.768,1.685c-2.765,0-4.462-2.236-4.462-5.387,0-3.646,2.281-6.257,5.9-6.257a3.694,3.694,0,0,1,2.258.705v-3.955l-1.09-.87Zm-4.032,9.871c0,3.074,1.123,4.749,2.985,4.749a3.188,3.188,0,0,0,2.137-.805V208.63a2.047,2.047,0,0,0-2.016-1.962C-621.624,206.668-622.814,208.63-622.814,211.78Z" fill="#1a1818"/></g><g transform="translate(439.352 2889.323)"><path d="M181.886,200.242a7.807,7.807,0,0,0,1.7.32l3.338,5.663,1.686,1.321.011.187h-4.484L180.42,200.4c-.253.011-.506.011-.76.011h-.705l-.11-.495.914-.012c2.512-.077,3.537-1.575,3.537-3.943,0-2.148-.959-3.537-3.548-3.537h-1.664v13.65l1.62,1.465v.2h-6.312v-.2l1.619-1.454V193.533l-1.619-1.454v-.2h7.293c3.867,0,5.86,1.608,5.86,4C186.545,198.655,184.331,199.846,181.886,200.242Z" fill="#1a1818"/><path d="M191.788,196.354a1.653,1.653,0,1,1-1.708,1.652A1.611,1.611,0,0,1,191.788,196.354Zm1.707,9.992A1.6,1.6,0,0,1,191.788,208a1.648,1.648,0,1,1,1.707-1.652Z" fill="#1a1818"/><path d="M210.208,203.834V193.709l-1.73-1.652v-.176H212.5v.176l-1.741,1.652v14.024l-.981.386-9.915-13.6V205.9l1.73,1.641v.187h-3.967v-.187l1.686-1.641V193.533l-1.674-1.454v-.2h3.856Z" fill="#1a1818"/><path d="M222.863,197.345h.2v4.616h-.2l-1.631-2.1h-2.9v7.337h5.278l2.886-3.668.11.011-.572,4.2H213.642v-.2l1.619-1.454V193.533l-1.619-1.454v-.2h11.721v4.2h-.11l-2.324-3.658h-4.6v6.9h2.9Z" fill="#1a1818"/></g><line x2="133" transform="translate(612.5 3037.5)" fill="none" stroke="#707070" stroke-width="1"/></g></svg>