<svg xmlns="http://www.w3.org/2000/svg" width="788" height="300" viewBox="0 0 788 300"><g transform="translate(-326 -2518)"><rect width="788" height="300" transform="translate(326 2518)" fill="#fff"/><g transform="translate(225.266 2349.533)"><g transform="translate(100.734 168.467)"><path d="M121.589,193.781l-3.68-17.593-8.922,8.922Z" transform="translate(-99.145 -166.98)" fill="#1a1818"/><path d="M127.766,217.734,151.1,188.752l-18.363-18.363a6.556,6.556,0,0,0-9.274,0l-5.484,5.482Z" transform="translate(-97.413 -168.467)" fill="#1a1818"/><path d="M123.676,196.3l-14.941-11.084L104.25,189.7a12,12,0,0,0-3.516,8.486v32.054a6.558,6.558,0,0,0,6.558,6.558h24.3Z" transform="translate(-100.734 -165.242)" fill="#1a1818"/><path d="M153.473,189.4l-2.636-2.636-23.506,31.479,4.775,18.254h18.324a6.558,6.558,0,0,0,6.558-6.558V197.888A12,12,0,0,0,153.473,189.4Z" transform="translate(-95.612 -164.943)" fill="#1a1818"/></g><g transform="translate(179.241 190.433)"><path d="M176.7,196.858a9.272,9.272,0,0,0,2.023.38l3.982,6.754,2.009,1.575.013.224h-5.348l-4.427-8.751c-.3.014-.6.014-.908.014h-.841l-.131-.591,1.09-.013c3-.092,4.218-1.878,4.218-4.7,0-2.562-1.142-4.218-4.231-4.218h-1.983v16.279l1.931,1.748v.236h-7.528v-.236l1.931-1.734V188.856l-1.931-1.734v-.236h8.7c4.612,0,6.99,1.918,6.99,4.769C182.261,194.966,179.62,196.385,176.7,196.858Z" transform="translate(-166.561 -186.886)" fill="#1a1818"/><path d="M194.316,202.158a6.454,6.454,0,0,1-5.794,3.089c-3.784,0-6.254-2.747-6.254-6.675,0-4.284,2.732-7.213,6.582-7.213,3.64,0,5.742,2.68,5.742,6.017H185.8c-.013.157-.013.3-.013.473.079,3.468,1.655,5.531,4.441,5.531a5.928,5.928,0,0,0,3.9-1.406Zm-8.5-5.136,5.361-.29c0-3.324-.841-4.848-2.483-4.848C186.945,191.884,185.934,193.894,185.816,197.021Z" transform="translate(-163.538 -186.025)" fill="#1a1818"/><path d="M202.966,195.3h-.211a16.992,16.992,0,0,0-2.378-3.364,3.759,3.759,0,0,0-.972-.118,2.16,2.16,0,0,0-2.457,2.155c0,1.339,1.419,2.1,3.179,2.943,2.037.985,4.23,2.1,4.23,4.4,0,2.589-2.4,3.93-5.6,3.93a12.124,12.124,0,0,1-4.782-1.026l.815-3.391h.25a10.581,10.581,0,0,0,2.483,3.811,7.176,7.176,0,0,0,1.379.144c2.037,0,2.642-1.065,2.642-2.194,0-1.511-1.485-2.142-3.324-3.035-1.906-.919-4.113-1.97-4.113-4.374,0-2.615,2.26-3.823,5.387-3.823a12.827,12.827,0,0,1,4.048.748Z" transform="translate(-161.283 -186.025)" fill="#1a1818"/><path d="M208.687,192.6v9.5c0,1.4.644,2.154,1.826,2.154a4.5,4.5,0,0,0,2.47-.682l.132.2a5.4,5.4,0,0,1-4.166,1.919,3.416,3.416,0,0,1-3.678-3.666V192.6h-1.708v-.157l1.826-.841,3.061-2.562h.223v3.1h4.06v.459Z" transform="translate(-159.437 -186.47)" fill="#1a1818"/><path d="M226.334,198.308a7.069,7.069,0,1,1-7.082-6.949A6.813,6.813,0,0,1,226.334,198.308Zm-7.068,6.478c2.154,0,3.442-2.419,3.442-6.478,0-4.033-1.3-6.49-3.455-6.49s-3.417,2.457-3.417,6.49C215.836,202.368,217.1,204.786,219.265,204.786Z" transform="translate(-157.775 -186.025)" fill="#1a1818"/><path d="M235.13,195.427h-.2c-.657-.933-1.406-2-2.8-2a2.578,2.578,0,0,0-1.918.959v8.987l1.866,1.354v.21H225v-.21l1.8-1.354V193.7l-1.616-1.038v-.223l4.887-1.077.144.144v2.272a5.588,5.588,0,0,1,4.415-2.469,3.082,3.082,0,0,1,1.142.2Z" transform="translate(-155.309 -186.033)" fill="#1a1818"/><path d="M246.922,202.158a6.455,6.455,0,0,1-5.795,3.089c-3.784,0-6.254-2.747-6.254-6.675,0-4.284,2.733-7.213,6.583-7.213,3.639,0,5.741,2.68,5.741,6.017h-8.791c-.012.157-.012.3-.012.473.079,3.468,1.655,5.531,4.44,5.531a5.928,5.928,0,0,0,3.9-1.406Zm-8.5-5.136,5.361-.29c0-3.324-.841-4.848-2.484-4.848C239.55,191.884,238.539,193.894,238.421,197.021Z" transform="translate(-153.408 -186.025)" fill="#1a1818"/><path d="M248.6,191.359a1.972,1.972,0,1,1-2.037,1.97A1.921,1.921,0,0,1,248.6,191.359Zm2.036,11.916a1.908,1.908,0,0,1-2.036,1.971,1.966,1.966,0,1,1,2.036-1.971Z" transform="translate(-151.157 -186.025)" fill="#1a1818"/><path d="M181.567,225.22V213.145l-2.063-1.97v-.211h4.8v.211l-2.076,1.97V229.87l-1.17.46L169.23,214.1V227.69l2.063,1.957v.223h-4.73v-.223l2.009-1.957V212.935l-2-1.734v-.237h4.6Z" transform="translate(-166.563 -182.249)" fill="#1a1818"/><path d="M194.255,226.237a6.456,6.456,0,0,1-5.794,3.088c-3.784,0-6.254-2.747-6.254-6.675,0-4.283,2.732-7.213,6.582-7.213,3.64,0,5.742,2.681,5.742,6.018h-8.791c-.013.157-.013.3-.013.473.079,3.468,1.655,5.531,4.441,5.531a5.922,5.922,0,0,0,3.9-1.407Zm-8.5-5.138,5.361-.289c0-3.324-.841-4.848-2.483-4.848C186.883,215.963,185.872,217.972,185.754,221.1Z" transform="translate(-163.55 -181.388)" fill="#1a1818"/><path d="M206.547,215.947l-1.247,1.379.184.578.223.618,2,6.385,2.719-7.606-1.55-1.354v-.223h4.035v.223l-1.761,1.367-4.349,11.64h-1.023l-2.983-9.473-3.6,9.473h-1.039l-4.138-11.64-1.419-1.367v-.223h6.386v.223l-1.406,1.354,2.509,7.791,2.47-6.6-.328-1.156-1.524-1.393v-.223h5.846Z" transform="translate(-161.55 -181.332)" fill="#1a1818"/><path d="M225.076,217.481h.236v5.5h-.236l-1.945-2.509h-3.455v8.749h6.293l3.442-4.374.131.013-.682,5.005H214.079v-.236l1.931-1.734V212.935l-1.931-1.734v-.237h13.978v5.006h-.131l-2.772-4.362h-5.479v8.224h3.455Z" transform="translate(-157.412 -182.249)" fill="#1a1818"/><path d="M236.723,229.009v-.21l1.735-1.339v-7.9a2.365,2.365,0,0,0-2.589-2.589,3.938,3.938,0,0,0-2.863,1.17v9.3l1.734,1.354v.21h-6.95v-.21l1.8-1.354v-9.669l-1.616-1.038v-.224l4.888-1.077.144.144v1.945a6.65,6.65,0,0,1,4.743-2.089,3.857,3.857,0,0,1,4.125,3.9v8.106l1.8,1.354v.21Z" transform="translate(-154.772 -181.388)" fill="#1a1818"/><path d="M251.886,216.627l3.442-2.049.144.039v2.549l-2.929-.118a4.193,4.193,0,0,1,1.5,3.179c0,2.667-2.4,4.625-5.821,4.625a7.1,7.1,0,0,1-2.85-.539,1.771,1.771,0,0,0-.973,1.432c0,.919.762,1.131,2.4,1.131h3.745c3.271,0,5.19,1.129,5.19,3.652,0,2.589-2.97,4.271-7.568,4.271-4.376,0-6.662-1.052-6.662-2.681,0-1.195,1.144-2.088,2.694-2.654a2.181,2.181,0,0,1-1.682-2.155c0-1.472,1.116-2.483,2.365-3.206a4.432,4.432,0,0,1-2.483-3.915c0-2.772,2.667-4.585,5.82-4.585A6.616,6.616,0,0,1,251.886,216.627Zm1.458,15.084c0-1.393-1.157-1.827-2.812-1.827-.88,0-1.891.054-2.891.054a12.992,12.992,0,0,1-2.942-.264,2.422,2.422,0,0,0-.947,1.813c0,1.814,1.722,2.76,4.7,2.76C251.688,234.246,253.345,233.34,253.345,231.711Zm-5.124-15.582c-1.682,0-2.365,1.5-2.365,4.1,0,2.627.736,4.086,2.365,4.086s2.365-1.445,2.365-4.086C250.585,217.613,249.862,216.128,248.22,216.128Z" transform="translate(-152.13 -181.553)" fill="#1a1818"/><path d="M259.617,210.226l.159.144v18.078l1.786,1.354v.21h-7v-.21l1.8-1.354V212.565l-1.3-1.024V211.3Z" transform="translate(-149.616 -182.391)" fill="#1a1818"/><path d="M272.392,227l1.406,1.221v.159l-4.336.946-.394-1.957a5.967,5.967,0,0,1-4.284,1.957c-2.062,0-3.521-1.064-3.521-2.917,0-2.93,3.652-4.585,7.712-4.887v-1.59c0-1.721-.88-2.956-3.166-2.956a6.752,6.752,0,0,0-3.5.906l-.184-.249a8.223,8.223,0,0,1,5.689-2.181c3.64,0,4.572,1.931,4.572,4.533Zm-5.795.67a3.614,3.614,0,0,0,2.379-.788V222c-2.615.342-4.349,1.6-4.349,3.574C264.627,226.853,265.219,227.667,266.6,227.667Z" transform="translate(-148.325 -181.385)" fill="#1a1818"/><path d="M281.9,229.009v-.21l1.734-1.339v-7.9a2.364,2.364,0,0,0-2.588-2.589,3.938,3.938,0,0,0-2.865,1.17v9.3l1.734,1.354v.21h-6.95v-.21l1.8-1.354v-9.669l-1.616-1.038v-.224l4.887-1.077.144.144v1.945a6.655,6.655,0,0,1,4.743-2.089,3.857,3.857,0,0,1,4.125,3.9v8.106l1.8,1.354v.21Z" transform="translate(-146.071 -181.388)" fill="#1a1818"/><path d="M295.494,211.292l4.546-1.077.171.146V228l1.406,1.221v.159l-4.322.946-.421-2.011a6.209,6.209,0,0,1-4.494,2.011c-3.3,0-5.32-2.668-5.32-6.426,0-4.348,2.719-7.462,7.041-7.462a4.412,4.412,0,0,1,2.694.841v-4.717l-1.3-1.038Zm-4.808,11.772c0,3.666,1.34,5.664,3.56,5.664a3.81,3.81,0,0,0,2.55-.959v-8.461a2.44,2.44,0,0,0-2.4-2.339C292.1,216.969,290.685,219.307,290.685,223.064Z" transform="translate(-143.357 -182.393)" fill="#1a1818"/></g></g></g></svg>