<svg xmlns="http://www.w3.org/2000/svg" width="788" height="300" viewBox="0 0 788 300">
  <g id="Group_185" data-name="Group 185" transform="translate(-326 -2947)">
    <rect id="Rectangle_582" data-name="Rectangle 582" width="788" height="300" transform="translate(326 2947)" fill="#fff"/>
    <g id="Group_419" data-name="Group 419" transform="translate(326 2947)">
      <g id="Group_411" data-name="Group 411" transform="translate(13.581 64.831)">
        <path id="Path_612" data-name="Path 612" d="M32.705,146.5l3.563.267-.048.275-2.938.837a1.118,1.118,0,0,0-.656.5,3.115,3.115,0,0,0-.354,1.12c-.281,1.589.276,3.074,1.636,3.315,1.468.259,2.348-.7,3.153-2.233l.4-.764c.878-1.673,2.178-2.514,3.875-2.215,1.972.348,2.727,2.5,2.365,4.548a7.33,7.33,0,0,1-.873,2.524H39.617l.048-.275,2.692-1.053a.934.934,0,0,0,.644-.612,4.117,4.117,0,0,0,.235-.887,2.262,2.262,0,0,0-1.631-2.81,2.341,2.341,0,0,0-2.569,1.516l-.4.764c-1.066,2.019-2.236,3.372-4.314,3.005-2-.354-2.956-2.54-2.535-4.926A9.575,9.575,0,0,1,32.705,146.5Z" transform="translate(-30.979 -145.272)" fill="#1d2a58"/>
        <path id="Path_613" data-name="Path 613" d="M30.5,185l.141.922c.06.446.178.683.611.641l10.286-1.043-.273-2.687c-.026-.262-.067-.352-.292-.423l-3.056-1.063-.028-.279,3.652,0,1.049,10.363-3.575.752-.028-.277,2.779-1.67c.205-.131.229-.212.2-.459l-.273-2.687-10.285,1.041c-.432.044-.486.283-.47.75l.047.932-.386.039-.488-4.819Z" transform="translate(-30.119 -164.252)" fill="#1d2a58"/>
        <path id="Path_614" data-name="Path 614" d="M43.86,221.362l5.671-2.488c.4-.176.384-.441.232-.865l-.239-.657.341-.15,1.759,4.006-.34.152-.323-.623c-.209-.4-.395-.588-.793-.414l-5.7,2.5c-2.5,1.1-3.2,2.674-2.2,4.948,1.017,2.316,2.8,2.838,5.292,1.746l5.572-2.446c.4-.176.389-.424.23-.865l-.239-.657.342-.15,1.366,3.113-.342.15-.317-.608c-.216-.413-.4-.6-.8-.428l-5.657,2.482c-2.87,1.261-5.052.423-6.293-2.407S40.875,222.672,43.86,221.362Z" transform="translate(-36.004 -184.093)" fill="#1d2a58"/>
        <path id="Path_615" data-name="Path 615" d="M60.289,261.259l.5.487c.325.313.56.436.882.146l7.286-6.567c.322-.291.225-.538-.053-.894l-.434-.55.277-.248,2.888,3.2c2.671,2.963,3.542,6.525.521,9.247s-6.587,1.593-9.206-1.314l-2.941-3.262Zm2.969,3.133c2.109,2.338,4.676,3.077,7.454.572,2.986-2.691,2.815-5.314.528-7.851l-.863-.958-8.023,7.232Z" transform="translate(-46.533 -204.097)" fill="#1d2a58"/>
        <path id="Path_616" data-name="Path 616" d="M93.486,290.454l.622.322c.4.2.662.253.887-.12l5.06-8.4c.224-.372.059-.58-.31-.839l-.574-.4.192-.319,7.406,4.459-1.339,3.216-.24-.143.037-3.131c.005-.25-.031-.309-.257-.445l-3.324-2-2.506,4.162,1.995,1.2c.226.135.277.113.4,0l1.476-1.249.239.143-2.378,3.95-.239-.143.4-1.878c.036-.178.037-.212-.188-.348l-1.995-1.2-2.762,4.586,3.976,2.393a.4.4,0,0,0,.484.038l3.247-1.269.239.144-2.7,2.434-8.044-4.843Z" transform="translate(-64.807 -218.956)" fill="#1d2a58"/>
        <path id="Path_617" data-name="Path 617" d="M132.225,308.63l.689.117c.461.079.708.042.809-.38l2.135-8.908-1-1.884.007-.03,1.993.477,5.746,10.666,1.877-7.835c.1-.422-.119-.572-.565-.709l-.668-.208.087-.362,3.321.794-.087.362-.69-.117c-.46-.077-.708-.041-.809.382l-2.581,10.778-.06-.014-6.138-11.5-1.975,8.243c-.1.422.118.572.564.709l.654.206-.087.362-3.306-.793Z" transform="translate(-86.136 -228.208)" fill="#1d2a58"/>
        <path id="Path_618" data-name="Path 618" d="M181.608,314.7l.924-.117c.448-.051.689-.162.655-.594l-.788-10.307-2.694.206c-.262.02-.354.056-.429.281l-1.138,3.03-.279.02.095-3.648,10.384-.794.664,3.59-.278.022-1.6-2.82c-.124-.208-.2-.232-.451-.214l-2.692.207.788,10.307c.033.432.271.493.738.489l.932-.027.03.388-4.829.37Z" transform="translate(-111.241 -231.08)" fill="#1d2a58"/>
        <path id="Path_619" data-name="Path 619" d="M241.888,294.251l.776-.519c.378-.245.544-.453.321-.825l-5.311-8.878-2.32,1.388c-.226.136-.29.211-.259.445l.335,3.22-.241.143-1.545-3.311,8.943-5.35,2.2,2.919-.239.145-2.694-1.811c-.205-.129-.287-.117-.5.01l-2.32,1.389,5.311,8.875c.224.374.463.322.879.109l.824-.438.2.331-4.159,2.488Z" transform="translate(-141.871 -218.884)" fill="#1d2a58"/>
        <path id="Path_620" data-name="Path 620" d="M271.484,267.222a6.194,6.194,0,1,1,8.668-.647A5.972,5.972,0,0,1,271.484,267.222Zm6.968-7.968c-2.7-2.361-5.455-2.276-7.11-.382s-1.383,4.647,1.317,7.008,5.454,2.252,7.109.358S281.14,261.6,278.451,259.254Z" transform="translate(-161.467 -205.572)" fill="#1d2a58"/>
        <path id="Path_621" data-name="Path 621" d="M296.019,228.659l-5.7-2.42c-.4-.17-.583.022-.787.425l-.315.625-.344-.146,1.71-4.031.344.146-.23.661c-.147.427-.159.691.242.861l5.73,2.431c2.516,1.067,4.143.493,5.113-1.793.988-2.33.141-3.988-2.361-5.049l-5.6-2.377c-.4-.17-.577.008-.787.424l-.315.625-.344-.145,1.328-3.129.344.146-.225.647c-.154.441-.165.705.235.875l5.688,2.413c2.886,1.225,3.773,3.39,2.566,6.233S299.021,229.933,296.019,228.659Z" transform="translate(-172.195 -183.305)" fill="#1d2a58"/>
        <path id="Path_622" data-name="Path 622" d="M313.862,190.975l.016-.7c.009-.45-.062-.707-.494-.746l-9.771-.879c-.432-.038-.547.2-.618.647l-.109.691-.371-.035.4-4.437c.252-2.8,1.04-4.8,3.3-4.6,1.716.154,2.527,1.536,2.6,3.677l6.439-4.875-.18,1.995-6.235,4.692-.1,1.128,4.792.431c.433.041.548-.2.62-.661l.109-.691.371.034-.392,4.36Zm-5.487-4.841c.178-1.979-.375-3.291-2.214-3.456s-2.6,1.029-2.779,3.008l-.122,1.36,4.993.449Z" transform="translate(-179.686 -163.513)" fill="#1d2a58"/>
        <path id="Path_623" data-name="Path 623" d="M313.156,150.557l-3.422,1.023-.052-.275,2.445-1.829a1.112,1.112,0,0,0,.433-.7,3.116,3.116,0,0,0-.068-1.172c-.305-1.585-1.356-2.773-2.713-2.51-1.462.281-1.94,1.5-2.146,3.212l-.1.857c-.222,1.876-1.135,3.127-2.827,3.453-1.966.38-3.44-1.36-3.832-3.4a7.351,7.351,0,0,1-.088-2.67l3-1.148.053.275-2.138,1.945a.935.935,0,0,0-.383.8,4.217,4.217,0,0,0,.1.915,2.266,2.266,0,0,0,2.528,2.042,2.344,2.344,0,0,0,1.858-2.335l.1-.857c.275-2.266.883-3.948,2.955-4.348,2-.384,3.668,1.316,4.125,3.693A9.546,9.546,0,0,1,313.156,150.557Z" transform="translate(-178.688 -143.776)" fill="#1d2a58"/>
      </g>
      <g id="Group_412" data-name="Group 412" transform="translate(34.658 13.35)">
        <path id="Path_624" data-name="Path 624" d="M89.087,73.92l.533-.43.253.273-3.289,3.054-.254-.275.537-.562c.343-.36.395-.556.016-.735L83.6,73.672l-3.222,2.99,1.324,3.39c.151.39.35.354.735.039l.6-.493.254.273-2.482,2.3-.254-.273.469-.5a.742.742,0,0,0,.223-.926L76.862,69.013l.182-.17,11.091,5.239A.75.75,0,0,0,89.087,73.92Zm-6.08-.546-4.815-2.312,1.946,4.975Z" transform="translate(-76.862 -51.15)" fill="#1d2a58"/>
        <path id="Path_625" data-name="Path 625" d="M111.823,56.265l-1.917-3.016.25-.125,2.428,1.853a1.109,1.109,0,0,0,.792.229,3.1,3.1,0,0,0,1.11-.386c1.442-.726,2.3-2.06,1.678-3.295-.67-1.33-1.969-1.46-3.676-1.19l-.853.133c-1.867.3-3.319-.24-4.094-1.778-.9-1.789.372-3.681,2.231-4.617a7.387,7.387,0,0,1,2.545-.813l1.923,2.577-.25.127-2.455-1.528a.932.932,0,0,0-.875-.15,4.123,4.123,0,0,0-.853.342,2.266,2.266,0,0,0-1.276,2.99,2.342,2.342,0,0,0,2.752,1.15l.853-.133c2.256-.354,4.04-.226,4.989,1.659.914,1.815-.268,3.889-2.43,4.976A9.584,9.584,0,0,1,111.823,56.265Z" transform="translate(-93.544 -37.103)" fill="#1d2a58"/>
        <path id="Path_626" data-name="Path 626" d="M142.81,38.3c-.676-3.7,1.663-6.523,5.557-7.236a8.931,8.931,0,0,1,3.791.016l1.247,3.2-.275.051L150.9,31.859a1.043,1.043,0,0,0-.822-.435,6,6,0,0,0-1.68.133c-2.489.457-4.57,2.369-3.885,6.109.617,3.376,2.9,5.484,6.027,4.91a5.869,5.869,0,0,0,1.619-.469,1.039,1.039,0,0,0,.614-.7l1.217-3.095.275-.051-.036,3.432a9.946,9.946,0,0,1-3.737,1.395C146.656,43.793,143.486,41.99,142.81,38.3Z" transform="translate(-113.009 -30.297)" fill="#1d2a58"/>
        <path id="Path_627" data-name="Path 627" d="M183.3,40.931l.7.032c.451.02.708-.045.758-.477l1.108-9.751c.048-.433-.188-.552-.632-.635l-.689-.125.043-.37,8.594.976.12,3.483-.278-.031-1.268-2.864c-.1-.23-.158-.266-.419-.3l-3.858-.439-.549,4.829,2.314.263c.263.03.3-.012.363-.162l.824-1.75.278.032-.52,4.582-.278-.032-.412-1.876c-.042-.176-.055-.208-.317-.239l-2.314-.262-.6,5.322,4.613.525a.409.409,0,0,0,.457-.168l2.425-2.507.278.032L192.6,42.362,183.261,41.3Z" transform="translate(-135.284 -29.606)" fill="#1d2a58"/>
        <path id="Path_628" data-name="Path 628" d="M218.656,47.913l.656.243c.438.162.688.172.865-.226l3.736-8.356-.637-2.035.012-.028,1.871.835,3.679,11.538,3.287-7.351c.177-.4-.011-.582-.423-.8l-.619-.327.152-.342,3.117,1.395-.153.34-.656-.243c-.438-.161-.689-.172-.865.225l-4.522,10.115-.056-.026-3.914-12.423-3.457,7.735c-.178.4.011.583.423.8l.6.321-.152.34-3.1-1.387Z" transform="translate(-154.635 -33.945)" fill="#1d2a58"/>
        <path id="Path_629" data-name="Path 629" d="M259.2,70.984l.725.59c.345.289.592.386.882.063l6.921-7.689-2.009-1.807c-.2-.176-.286-.216-.5-.117l-2.981,1.268-.207-.186,2.709-2.452,7.746,6.972-2.144,2.961-.207-.188.936-3.1c.064-.234.028-.309-.156-.477l-2.008-1.807L261.986,72.7c-.29.323-.169.537.157.873l.661.657-.26.289-3.6-3.242Z" transform="translate(-176.839 -46.653)" fill="#1d2a58"/>
      </g>
      <g id="Group_413" data-name="Group 413" transform="translate(9.962 42.349)">
        <rect id="Rectangle_669" data-name="Rectangle 669" width="1.034" height="34.869" transform="translate(0 0.91) rotate(-61.588)" fill="#1d2a58"/>
      </g>
      <g id="Group_414" data-name="Group 414" transform="translate(121.208 42.348)">
        <rect id="Rectangle_670" data-name="Rectangle 670" width="34.867" height="1.034" transform="translate(0 16.593) rotate(-28.418)" fill="#1d2a58"/>
      </g>
      <g id="Group_415" data-name="Group 415">
        <path id="Path_630" data-name="Path 630" d="M81.165,162.33A81.165,81.165,0,1,1,162.33,81.165,81.257,81.257,0,0,1,81.165,162.33Zm0-161.3a80.13,80.13,0,1,0,80.13,80.13A80.221,80.221,0,0,0,81.165,1.035Z" fill="#1d2a58"/>
      </g>
      <g id="Group_416" data-name="Group 416" transform="translate(56.423 110.323)">
        <path id="Path_631" data-name="Path 631" d="M126.425,244.824h.816l1.3,3.438h-.768l-.288-.785h-1.3l-.288.785h-.768Zm.816,1.989-.4-1.129h-.019l-.4,1.129Z" transform="translate(-125.129 -244.751)" fill="#1d2a58"/>
        <path id="Path_632" data-name="Path 632" d="M136.1,244.824h.648l1.632,2.136v-2.136h.72v3.438h-.648l-1.632-2.136v2.136h-.72Z" transform="translate(-131.155 -244.751)" fill="#1d2a58"/>
        <path id="Path_633" data-name="Path 633" d="M151.713,244.824h2.5v.688h-1.776v.663h1.392v.663h-1.392v.737h1.824v.687h-2.545Z" transform="translate(-139.726 -244.751)" fill="#1d2a58"/>
        <path id="Path_634" data-name="Path 634" d="M161.2,244.824h1.224a1.72,1.72,0,1,1,0,3.438H161.2Zm1.224,2.751a1.031,1.031,0,1,0,0-2.063h-.5v2.063Z" transform="translate(-144.933 -244.751)" fill="#1d2a58"/>
        <path id="Path_635" data-name="Path 635" d="M171.639,244.824h.721v2.014a.747.747,0,1,0,1.488,0v-2.014h.721v2.014a1.465,1.465,0,1,1-2.929,0Z" transform="translate(-150.667 -244.751)" fill="#1d2a58"/>
        <path id="Path_636" data-name="Path 636" d="M185.186,247.561a1.818,1.818,0,0,1-1.44.687,1.792,1.792,0,1,1,1.416-2.9l-.48.491a1.214,1.214,0,0,0-.936-.491,1.105,1.105,0,0,0,0,2.21,1.233,1.233,0,0,0,.96-.492Z" transform="translate(-156.313 -244.663)" fill="#1d2a58"/>
        <path id="Path_637" data-name="Path 637" d="M193.128,244.824h.815l1.3,3.438h-.768l-.288-.785h-1.3l-.288.785h-.768Zm.815,1.989-.4-1.129h-.019l-.4,1.129Z" transform="translate(-161.754 -244.751)" fill="#1d2a58"/>
        <path id="Path_638" data-name="Path 638" d="M202.381,245.512h-.96v-.688h2.64v.688h-.96v2.75h-.72Z" transform="translate(-167.02 -244.751)" fill="#1d2a58"/>
        <path id="Path_639" data-name="Path 639" d="M210.85,244.824h.72v3.438h-.72Z" transform="translate(-172.197 -244.751)" fill="#1d2a58"/>
        <path id="Path_640" data-name="Path 640" d="M218.108,244.663a1.793,1.793,0,1,1-1.824,1.792A1.8,1.8,0,0,1,218.108,244.663Zm0,2.9a1.105,1.105,0,1,0-1.08-1.106A1.089,1.089,0,0,0,218.108,247.561Z" transform="translate(-175.181 -244.663)" fill="#1d2a58"/>
        <path id="Path_641" data-name="Path 641" d="M228.218,244.824h.648l1.632,2.136v-2.136h.719v3.438h-.648l-1.632-2.136v2.136h-.72Z" transform="translate(-181.733 -244.751)" fill="#1d2a58"/>
        <path id="Path_642" data-name="Path 642" d="M142.816,257.907h.648l1.152,1.474,1.152-1.474h.648v3.438h-.72v-2.259l-1.08,1.375-1.08-1.375v2.259h-.72Z" transform="translate(-134.841 -251.935)" fill="#1d2a58"/>
        <path id="Path_643" data-name="Path 643" d="M156.469,257.745a1.793,1.793,0,1,1-1.824,1.792A1.8,1.8,0,0,1,156.469,257.745Zm0,2.9a1.105,1.105,0,1,0-1.08-1.106A1.088,1.088,0,0,0,156.469,260.643Z" transform="translate(-141.336 -251.846)" fill="#1d2a58"/>
        <path id="Path_644" data-name="Path 644" d="M165.567,257.907h.768l.878,2.53h.019l.878-2.53h.768l-1.248,3.438h-.816Z" transform="translate(-147.333 -251.935)" fill="#1d2a58"/>
        <path id="Path_645" data-name="Path 645" d="M176.434,257.907h2.5v.688h-1.776v.663h1.392v.663h-1.392v.737h1.824v.687h-2.545Z" transform="translate(-153.3 -251.935)" fill="#1d2a58"/>
        <path id="Path_646" data-name="Path 646" d="M185.917,257.907h.648l1.152,1.474,1.152-1.474h.648v3.438h-.72v-2.259l-1.08,1.375-1.08-1.375v2.259h-.72Z" transform="translate(-158.507 -251.935)" fill="#1d2a58"/>
        <path id="Path_647" data-name="Path 647" d="M198.224,257.907h2.5v.688h-1.776v.663h1.392v.663h-1.392v.737h1.824v.687h-2.545Z" transform="translate(-165.264 -251.935)" fill="#1d2a58"/>
        <path id="Path_648" data-name="Path 648" d="M207.707,257.907h.648l1.632,2.136v-2.136h.72v3.438h-.648l-1.632-2.136v2.136h-.72Z" transform="translate(-170.471 -251.935)" fill="#1d2a58"/>
        <path id="Path_649" data-name="Path 649" d="M218.9,258.6h-.96v-.688h2.64v.688h-.96v2.75h-.72Z" transform="translate(-176.088 -251.935)" fill="#1d2a58"/>
      </g>
      <g id="Group_418" data-name="Group 418" transform="translate(57.641 49.278)">
        <path id="Path_650" data-name="Path 650" d="M181.392,172l14.458-7.229a15.265,15.265,0,0,0,8.438-13.653V126.21L186.314,135.2a8.9,8.9,0,0,0-4.922,7.964Z" transform="translate(-157.24 -118.578)" fill="#1d2a58"/>
        <path id="Path_651" data-name="Path 651" d="M144.757,109.284v27.652a19.08,19.08,0,0,0,4.181,11.919l11.083,13.854V135.057a19.081,19.081,0,0,0-4.181-11.92Z" transform="translate(-137.125 -109.284)" fill="#1d2a58"/>
        <g id="Group_417" data-name="Group 417" transform="translate(0 7.632)">
          <path id="Path_652" data-name="Path 652" d="M138.664,158.933a20.411,20.411,0,0,1-4.456-12.7V129.4l-6.377-3.188v24.91a15.264,15.264,0,0,0,8.438,13.653l11.779,5.889Z" transform="translate(-127.831 -126.21)" fill="#1d2a58"/>
        </g>
      </g>
    </g>
  </g>
</svg>
