<svg xmlns="http://www.w3.org/2000/svg" width="788" height="300" viewBox="0 0 788 300">
  <g id="Group_184" data-name="Group 184" transform="translate(-326 -2518)">
    <rect id="Rectangle_581" data-name="Rectangle 581" width="788" height="300" transform="translate(326 2518)" fill="#fff"/>
    <g id="Group_123" data-name="Group 123" transform="translate(326 2528)">
      <g id="Group_122" data-name="Group 122" transform="translate(72.576 12.692)">
        <path id="Path_252" data-name="Path 252" d="M92.263,52.594H86.83V15.55h5.433V31.214a9.938,9.938,0,0,1,7.957-3.8,12.287,12.287,0,0,1,11.911,12.663,1.239,1.239,0,0,0,0,.176,12.3,12.3,0,0,1-11.7,12.838h-.176a9.963,9.963,0,0,1-7.957-3.8Zm6.963-20.252A7.431,7.431,0,0,0,91.8,39.789v.46a7.439,7.439,0,0,0,6.946,7.89h.46a7.431,7.431,0,0,0,7.38-7.472c0-.15,0-.293,0-.435a7.422,7.422,0,0,0-6.929-7.89Z" transform="translate(-86.83 -15.245)" fill="#122969"/>
        <path id="Path_253" data-name="Path 253" d="M123.7,30.267h5.433v4.4A6.954,6.954,0,0,1,135.652,30a11.334,11.334,0,0,1,2.123.192v5.583a8.6,8.6,0,0,0-2.716-.443c-3.109,0-5.926,2.625-5.926,7.573V54.975H123.7Z" transform="translate(-92.883 -17.617)" fill="#122969"/>
        <path id="Path_254" data-name="Path 254" d="M148.662,22.453a3.636,3.636,0,1,1,0-7.263,3.594,3.594,0,0,1,3.6,3.586h0a3.594,3.594,0,0,1-3.552,3.653Zm-2.716,5.383h5.433v24.7h-5.433Z" transform="translate(-96.355 -15.185)" fill="#122969"/>
        <path id="Path_255" data-name="Path 255" d="M171.191,29.73a9.838,9.838,0,0,1,7.915,3.8V30.189h5.433V54.922h-5.433V51.579a9.838,9.838,0,0,1-7.9,3.8A12.3,12.3,0,0,1,159.3,42.719v-.142A12.3,12.3,0,0,1,171,29.738Zm.986,4.94a7.4,7.4,0,0,0-7.38,7.414v.493a7.4,7.4,0,0,0,6.871,7.882,4.781,4.781,0,0,0,.493,0,7.389,7.389,0,0,0,7.372-7.406,4.785,4.785,0,0,0,0-.493,7.4,7.4,0,0,0-6.862-7.89Z" transform="translate(-98.724 -17.573)" fill="#122969"/>
        <path id="Path_256" data-name="Path 256" d="M198.29,30.218h5.433v3.343a8.5,8.5,0,0,1,7.523-3.853c5.734,0,9.437,4.045,9.437,10.323V54.917h-5.433V40.942c0-3.9-1.973-6.277-5.132-6.277-3.611,0-6.377,2.817-6.377,8.1V54.917h-5.433Z" transform="translate(-105.128 -17.568)" fill="#122969"/>
        <path id="Path_257" data-name="Path 257" d="M247.28,15.55h5.433V37.282L262.15,27.9h6.871L258,38.912l13.482,13.683h-6.963l-11.81-11.961V52.594H247.28Z" transform="translate(-113.17 -15.245)" fill="#122969"/>
        <path id="Path_258" data-name="Path 258" d="M279.61,30.271h5.433v4.4a6.954,6.954,0,0,1,6.519-4.647,11.267,11.267,0,0,1,2.123.192V35.8a8.525,8.525,0,0,0-2.716-.443c-3.1,0-5.926,2.625-5.926,7.573V54.978H279.61Z" transform="translate(-118.477 -17.62)" fill="#122969"/>
        <path id="Path_259" data-name="Path 259" d="M311.819,55.415A12.747,12.747,0,0,1,298.88,42.877v-.3A12.738,12.738,0,0,1,311.518,29.73h.293a12.746,12.746,0,0,1,12.939,12.538c0,.092,0,.192,0,.293A12.747,12.747,0,0,1,312.094,55.4Zm0-5.015a7.406,7.406,0,0,0,7.422-7.389c0-.142,0-.284,0-.418a7.4,7.4,0,0,0-7-7.79h-.418a7.422,7.422,0,0,0-7.472,7.364c0,.15,0,.293,0,.443a7.414,7.414,0,0,0,7.013,7.8Z" transform="translate(-121.641 -17.572)" fill="#122969"/>
        <path id="Path_260" data-name="Path 260" d="M340.555,56.857c.995,2.909,3.343,4.246,6.82,4.246,3.711,0,6.687-2.508,6.687-7.263V50.931a9.712,9.712,0,0,1-7.907,3.853A12.1,12.1,0,0,1,334.328,42.5v-.242a12.078,12.078,0,0,1,11.635-12.5h.217a9.629,9.629,0,0,1,7.932,3.786V30.2h5.433V53.363c0,8.6-5.684,12.354-12.3,12.354-6.762,0-11.359-3.753-12-8.893Zm6.62-22.183a7.247,7.247,0,0,0-7.364,7.121v.443a7.247,7.247,0,0,0,6.921,7.523h.435a7.255,7.255,0,0,0,7.372-7.13V42.2a7.238,7.238,0,0,0-6.912-7.523Z" transform="translate(-127.459 -17.577)" fill="#122969"/>
        <path id="Path_261" data-name="Path 261" d="M373.23,15.55h5.433V31.264a8.492,8.492,0,0,1,7.523-3.853c5.734,0,9.437,4.054,9.437,10.323V52.6h-5.433V38.627c0-3.9-1.973-6.277-5.132-6.277-3.611,0-6.377,2.817-6.377,8.1V52.6h-5.433Z" transform="translate(-133.846 -15.245)" fill="#122969"/>
      </g>
      <path id="Path_262" data-name="Path 262" d="M45.971,47.058H30.09V33.885h.936A15.045,15.045,0,0,1,45.971,47.058ZM30.09,30.09V16.942H44.124A15.087,15.087,0,0,1,30.09,30.09ZM29.179,0A15.045,15.045,0,0,1,44.115,13.173H0V0ZM0,16.942H26.354V30.09H0ZM26.354,33.885V47.058H0V33.885Zm4.706,30.09H0V50.819H45.971A15.045,15.045,0,0,1,31.06,64Z" transform="translate(0 0)" fill="#122969"/>
    </g>
  </g>
</svg>
