<?xml version="1.0" encoding="UTF-8"?>
<svg id="Layer_1" xmlns="http://www.w3.org/2000/svg" version="1.1" viewBox="0 0 788 300">
  <!-- Generator: Adobe Illustrator 29.2.1, SVG Export Plug-In . SVG Version: 2.1.0 Build 116)  -->
  <defs>
    <style>
      .st0 {
        fill: none;
      }

      .st1 {
        fill: #231f20;
      }
    </style>
  </defs>
  <rect id="Rectangle_581" class="st0" width="788" height="300"/>
  <g>
    <g>
      <path class="st1" d="M311.6,139.2h2.1v4.2h5.1v-4.2h2.1v10.4h-2.1v-4.2h-5.1v4.2h-2.1v-10.4Z"/>
      <path class="st1" d="M332.9,149.9c-1.6,0-2.9-.4-3.8-1.2s-1.4-2.1-1.4-3.9v-.6c0-1.1.2-2,.7-2.8s1-1.4,1.8-1.8,1.7-.6,2.7-.6,1.9.2,2.7.6,1.4,1,1.8,1.8.7,1.7.7,2.8v.6c0,1.1-.2,2.1-.7,2.9-.4.8-1,1.3-1.8,1.7s-1.7.6-2.7.6h0ZM332.9,148c1,0,1.7-.3,2.2-.8s.8-1.3.8-2.5v-.4c0-1.1-.3-2-.8-2.5s-1.3-.8-2.2-.8-1.7.3-2.2.8c-.5.6-.8,1.4-.8,2.5v.5c0,1.1.2,1.9.8,2.4s1.2.8,2.2.8h0Z"/>
      <path class="st1" d="M344.9,149.6v-10.4h2l3.5,4.4,3.6-4.4h1.9v10.4h-2v-7.3l-3.3,4.1h-.2l-3.2-4v7.3h-2.3Z"/>
      <path class="st1" d="M364.2,149.6v-10.4h8.3v1.8h-6.2v2.5h5.3v1.8h-5.3v2.5h6.5v1.9h-8.6,0Z"/>
      <path class="st1" d="M388.7,149.6v-10.4h4.7c1.5,0,2.6.2,3.3.7.7.4,1.1,1.1,1.1,2h0c0,.7,0,1.2-.4,1.6-.3.4-.7.6-1.3.8.6.1,1.1.4,1.4.8s.5.9.5,1.6h0c0,1-.4,1.8-1.1,2.3-.8.5-1.9.7-3.4.7h-4.8ZM393.5,140.9h-2.7v2.5h2.8c.7,0,1.2,0,1.6-.3s.6-.5.6-1h0c0-.5-.2-.8-.5-1s-.9-.3-1.7-.3h-.1,0ZM393.4,145.2h-2.6v2.7h2.5c.7,0,1.2,0,1.6-.1s.6-.2.8-.4.2-.5.2-.8h0c0-.5-.2-.9-.6-1.1-.4-.2-1-.3-1.9-.3h0Z"/>
      <path class="st1" d="M409.2,149.9c-1.6,0-2.7-.4-3.5-1.2s-1.2-2.2-1.2-4v-5.4h2.2v5.3c0,1.2.2,2,.6,2.5s1,.8,1.9.8,1.5-.2,1.8-.7.6-1.3.6-2.5v-5.3h2.2v5.4c0,1.8-.4,3.2-1.2,4s-2,1.2-3.5,1.2h.1Z"/>
      <path class="st1" d="M423.8,149.6v-4.2l-3.9-6.2h2.5l2.7,4.4,2.8-4.4h2.5l-4.2,6.3v4.2h-2.4Z"/>
      <path class="st1" d="M436.3,149.6v-10.4h8.3v1.8h-6.2v2.5h5.3v1.8h-5.3v2.5h6.5v1.9h-8.6,0Z"/>
      <path class="st1" d="M451.4,149.6v-10.4h4.6c1.6,0,2.7.3,3.4.8.7.6,1,1.3,1,2.4s-.2,1.3-.5,1.7-.8.7-1.5.9c.6.2,1.1.5,1.4.9s.4,1,.4,1.8v1.5c0,.1,0,.2.2.3h-2.2s-.1-.1-.2-.3v-1.6c0-.7-.2-1.1-.5-1.4s-.9-.4-1.7-.4h-2.4v3.6h-2.1v.2h.1ZM456,141h-2.5v3.2h2.4c.7,0,1.3-.1,1.7-.3s.6-.6.6-1.2h0c0-.6-.2-1-.5-1.2-.4-.2-.9-.3-1.8-.3h0v-.2h0Z"/>
      <path class="st1" d="M471.8,149.9c-1.2,0-2.1-.1-2.9-.4s-1.3-.7-1.6-1.3c-.4-.6-.6-1.3-.7-2.1h2.3c0,.7.4,1.2.8,1.6.5.3,1.2.5,2.1.5s1.4-.1,1.8-.4.6-.6.6-1,0-.6-.3-.8c-.2-.2-.6-.3-1.1-.4-.5,0-1.1-.2-1.8-.2s-1.4-.2-2-.4-1.1-.5-1.4-.9-.5-1-.5-1.7.1-1.1.5-1.6c.3-.5.8-.9,1.4-1.1s1.4-.4,2.4-.4c1.5,0,2.7.3,3.5.9s1.2,1.5,1.3,2.6h-2.2c0-.6-.3-1-.8-1.3-.4-.3-1-.4-1.9-.4s-1.3.1-1.6.4c-.3.2-.5.6-.5.9s.2.8.7.9,1.2.3,2.2.4c.8,0,1.6.2,2.2.4s1.1.5,1.5.9.5,1,.5,1.7-.1,1.2-.5,1.7c-.3.5-.8.9-1.5,1.2s-1.5.4-2.5.4h0Z"/>
    </g>
    <g>
      <path class="st1" d="M294.2,129.7c-4.9,0-8.6-1.2-11.1-3.7s-3.8-6-3.8-10.5v-.6c0-3.1.6-5.8,1.9-8s3-3.8,5.3-5c2.3-1.1,4.8-1.7,7.8-1.7s7.6,1,10.2,3,4.1,5,4.5,9.1h-7.1c-.3-2.3-1.1-3.9-2.3-4.9-1.3-1-3-1.5-5.2-1.5s-4.4.8-5.9,2.3-2.2,3.7-2.2,6.7v.5c0,2.7.7,4.8,2.1,6.3s3.4,2.2,5.9,2.2c4.5,0,7-2.1,7.6-6.4h7.1c-.3,4.2-1.8,7.3-4.4,9.3s-6.1,3-10.4,3h0Z"/>
      <path class="st1" d="M323.2,129.6c-3.5,0-6.2-1-7.9-3.1s-2.6-4.9-2.6-8.5v-16.9h6.8v15.2c0,2.3.5,4.2,1.4,5.5.9,1.4,2.5,2.1,4.9,2.1s3.9-.8,5-2.4,1.7-3.6,1.7-6.2v-14.3h6.8v28h-5.7l-.6-5.5c-.8,1.9-1.9,3.4-3.6,4.5-1.7,1.1-3.6,1.7-6.1,1.7h-.1,0Z"/>
      <path class="st1" d="M344.3,129v-28h5.7l.6,5.3c.8-1.8,1.9-3.2,3.5-4.3,1.6-1.1,3.5-1.7,5.8-1.7s4.5.6,6.1,1.7,2.6,2.6,3.3,4.5c.8-1.9,1.9-3.4,3.5-4.5s3.6-1.7,6-1.7c3.5,0,6.1,1,7.9,3.1s2.7,5,2.7,8.6v17h-6.8v-15.3c0-2.3-.5-4.2-1.4-5.6s-2.5-2.1-4.8-2.1-3.7.7-4.7,2.1-1.5,3.3-1.5,5.5v15.3h-6.7v-15.6c0-1.4-.2-2.6-.5-3.7s-1-2-1.8-2.7c-.9-.7-2.1-1-3.6-1s-3.8.8-4.8,2.3-1.6,3.6-1.6,6.2v14.5h-6.9Z"/>
      <path class="st1" d="M410.9,129.7c-2.6,0-4.7-.6-6.4-1.7s-3-2.6-3.8-4.5l-.5,5.4h-5.7v-34.3h6.5v11.7c.9-1.9,2.2-3.4,4-4.5,1.7-1.1,3.8-1.6,6.3-1.6s4.6.5,6.5,1.6,3.4,2.7,4.4,4.8,1.6,4.7,1.6,7.9v.6c0,3.1-.5,5.8-1.6,7.9-1.1,2.2-2.6,3.8-4.5,4.9-1.9,1.1-4.1,1.7-6.6,1.7h-.2,0ZM408.8,123.8c2.6,0,4.6-.7,6-2.2s2-3.6,2-6.5v-.4c0-2.8-.7-5-2.1-6.5s-3.4-2.3-5.8-2.3-4.4.8-5.9,2.4-2.2,3.7-2.2,6.3v.4c0,2.8.7,5.1,2.1,6.6,1.4,1.6,3.4,2.3,5.9,2.3h0Z"/>
      <path class="st1" d="M442.3,129.7c-5.1,0-8.8-1.3-11.2-3.8-2.4-2.6-3.6-6-3.6-10.3v-.5c0-2.9.6-5.5,1.8-7.7s2.9-4,5.2-5.2,4.9-1.9,8.1-1.9,6.1.7,8.2,2,3.8,3.1,4.8,5.2c1,2.2,1.6,4.5,1.6,7v3h-23.1c.3,2.2,1.1,3.9,2.6,5s3.4,1.7,6,1.7,3.3-.3,4.5-.9,1.9-1.5,2.5-2.6h7.3c-1,2.9-2.7,5.2-5.1,6.7-2.4,1.5-5.6,2.3-9.4,2.3h-.2,0ZM442.7,105.5c-2.4,0-4.3.6-5.8,1.8s-2.4,2.8-2.7,5h16.4c-.3-2.1-1-3.8-2.3-5s-3.1-1.8-5.5-1.8h-.1Z"/>
      <path class="st1" d="M461.7,129v-28h5.5l.9,6.8c.6-2.3,1.7-4,3.2-5.2,1.6-1.2,3.7-1.8,6.4-1.8h2.2v6.8h-3c-2.3,0-4.1.3-5.4.9s-2.1,1.6-2.6,2.9-.7,3.2-.7,5.4v12.2h-6.7.2Z"/>
      <path class="st1" d="M495.4,129.7c-4.6,0-8.1-.9-10.4-2.6s-3.8-4.2-4.2-7.5h7.4c.3,1.6,1.1,2.8,2.3,3.5s2.9,1,5.1,1,3.8-.3,4.7-.9,1.4-1.5,1.4-2.6-.7-2-2.2-2.4-3.5-.7-6-.9c-2.1-.2-4-.6-5.7-1.1-1.8-.5-3.2-1.3-4.2-2.4-1.1-1.1-1.6-2.7-1.6-4.7s1-4.7,3.1-6.4,5.2-2.6,9.3-2.6,7.4.8,9.6,2.4,3.5,3.9,4,6.8h-7c-.3-1.4-.9-2.4-2-3s-2.7-.9-4.6-.9-3.6.3-4.5,1-1.2,1.4-1.2,2.3.7,2,2.2,2.4,3.5.7,6,1c2.2.2,4.1.6,5.9,1s3.2,1.2,4.2,2.3,1.6,2.7,1.6,4.7-1.1,5-3.2,6.8-5.4,2.7-9.8,2.7h-.2,0Z"/>
    </g>
    <g>
      <path class="st1" d="M393.9,29.8c-2,0-3.6,1.6-3.6,3.6v10.9h7.3v-10.9c0-2-1.6-3.6-3.6-3.6h-.1,0Z"/>
      <path class="st1" d="M406.3,53.8l-9.9,9.9c-1.4,1.4-3.7,1.4-5.2,0l-9.9-9.9c-1.4-1.4-2.1-3.2-2.1-5.2v-23.2c0-1.9.8-3.8,2.1-5.2l9.9-9.9c1.4-1.4,3.7-1.4,5.2,0l9.9,9.9c1.4,1.4,3.2,2.1,5.2,2.1h11.6l-12.5-12.5c-1.4-1.4-3.2-2.1-5.2-2.1h-23.1c-1.9,0-3.8.8-5.2,2.1l-10.3,10.3c-1.4,1.4-2.1,3.2-2.1,5.2v23.1c0,1.9.8,3.8,2.1,5.2l10.3,10.3c1.4,1.4,3.2,2.1,5.2,2.1h23.1c1.9,0,3.8-.8,5.2-2.1l12.5-12.5h-11.6c-1.9,0-3.8.8-5.2,2.1h0v.3Z"/>
    </g>
  </g>
</svg>